<svg width="24" height="24" viewBox="0 0 24 24" fill="none" xmlns="http://www.w3.org/2000/svg">
<path d="M20.4152 13.0725C20.4576 12.7288 20.4859 12.3713 20.4859 12C20.4859 11.6288 20.4576 11.2713 20.4011 10.9275L22.7913 9.1125C23.0034 8.9475 23.06 8.645 22.9327 8.41125L20.6698 4.6025C20.5283 4.355 20.2313 4.2725 19.9768 4.355L17.1623 5.455C16.5682 5.015 15.9459 4.6575 15.2529 4.3825L14.8286 1.4675C14.7862 1.1925 14.5458 1 14.2629 1H9.73709C9.45423 1 9.22794 1.1925 9.18551 1.4675L8.76121 4.3825C8.06819 4.6575 7.43175 5.02875 6.85188 5.455L4.03738 4.355C3.78281 4.25875 3.4858 4.355 3.34437 4.6025L1.08146 8.41125C0.940026 8.65875 0.996599 8.9475 1.22289 9.1125L3.61309 10.9275C3.55652 11.2713 3.51409 11.6425 3.51409 12C3.51409 12.3575 3.54237 12.7288 3.59895 13.0725L1.20875 14.8875C0.996599 15.0525 0.940026 15.355 1.06732 15.5887L3.33023 19.3975C3.47166 19.645 3.76866 19.7275 4.02324 19.645L6.83774 18.545C7.43175 18.985 8.05405 19.3425 8.74707 19.6175L9.17136 22.5325C9.22794 22.8075 9.45423 23 9.73709 23H14.2629C14.5458 23 14.7862 22.8075 14.8145 22.5325L15.2388 19.6175C15.9318 19.3425 16.5683 18.9713 17.1481 18.545L19.9626 19.645C20.2172 19.7413 20.5142 19.645 20.6556 19.3975L22.9185 15.5887C23.06 15.3412 23.0034 15.0525 22.7771 14.8875L20.4152 13.0725ZM12 16.125C9.66637 16.125 7.75704 14.2688 7.75704 12C7.75704 9.73125 9.66637 7.875 12 7.875C14.3336 7.875 16.243 9.73125 16.243 12C16.243 14.2688 14.3336 16.125 12 16.125Z" stroke="white" stroke-width="1.4"/>
</svg>
