<svg width="19" height="20" viewBox="0 0 19 20" fill="none" xmlns="http://www.w3.org/2000/svg">
<path d="M4.37 15.1116C3.287 14.0286 3.287 12.2679 4.37 11.1849L6.90333 8.65159L5.7 7.44825L3.16667 9.98159C1.41867 11.7296 1.41867 14.5669 3.16667 16.3149C4.91467 18.0629 7.752 18.0629 9.5 16.3149L12.0333 13.7816L10.83 12.5783L8.29667 15.1116C7.21367 16.1946 5.453 16.1946 4.37 15.1116ZM7.6 13.1483L12.6667 8.08159L11.4 6.81492L6.33333 11.8816L7.6 13.1483ZM9.5 3.64825L6.96667 6.18159L8.17 7.38492L10.7033 4.85159C11.7863 3.76859 13.547 3.76859 14.63 4.85159C15.713 5.93459 15.713 7.69525 14.63 8.77825L12.0967 11.3116L13.3 12.5149L15.8333 9.98159C17.5813 8.23359 17.5813 5.39625 15.8333 3.64825C14.0853 1.90025 11.248 1.90025 9.5 3.64825Z" fill="#FF7134"/>
</svg>
