<svg width="300" height="152" viewBox="0 0 300 152" fill="none" xmlns="http://www.w3.org/2000/svg">
<rect width="300" height="152" rx="12" fill="#F7F6F5"/>
<path d="M150.004 112C130.149 112 114 95.8523 114 76C114 56.1477 130.149 40 150.004 40C150.495 40 150.979 40.0161 151.462 40.0403C152.743 40.0886 153.79 41.0792 153.919 42.3517C154.66 49.5275 160.427 55.0765 167.636 55.5436C168.965 55.6322 170.012 56.7195 170.044 58.0483C170.237 65.6188 176.061 71.7879 183.608 72.3919C184.913 72.4966 185.936 73.5678 185.976 74.8805L185.984 75.106C185.992 75.404 186 75.7101 186 76.0081C186.008 95.8523 169.859 112 150.004 112ZM149.166 45.1624C132.542 45.6054 119.155 59.2725 119.155 76C119.155 93.0094 132.993 106.846 150.004 106.846C166.613 106.846 180.201 93.6537 180.829 77.1919C172.549 75.5248 166.218 68.8 165.074 60.4161C157.165 59.0067 150.898 52.9987 149.166 45.1624Z" fill="#DDDDDD"/>
<path d="M166.8 58.3537C168.08 71.1218 178.533 75.3779 183.6 75.9099C181.04 103.361 160.133 109.692 150 109.426C120.56 108.15 115.867 82.826 117.2 70.3238C122.32 46.7027 141.733 41.8615 150.8 42.3935C152.08 53.8848 162 57.8217 166.8 58.3537Z" fill="#DDDDDD"/>
<path d="M140.548 64.7723C142.847 64.7723 144.712 62.9082 144.712 60.6086C144.712 58.309 142.847 56.4448 140.548 56.4448C138.248 56.4448 136.383 58.309 136.383 60.6086C136.383 62.9082 138.248 64.7723 140.548 64.7723Z" fill="#F9F9F9"/>
<path d="M149.972 80.059C152.272 80.059 154.137 78.1948 154.137 75.8952C154.137 73.5956 152.272 71.7314 149.972 71.7314C147.672 71.7314 145.808 73.5956 145.808 75.8952C145.808 78.1948 147.672 80.059 149.972 80.059Z" fill="#F9F9F9"/>
<path d="M150.486 97.9374C152.786 97.9374 154.651 96.0732 154.651 93.7736C154.651 91.474 152.786 89.6099 150.486 89.6099C148.187 89.6099 146.322 91.474 146.322 93.7736C146.322 96.0732 148.187 97.9374 150.486 97.9374Z" fill="#F9F9F9"/>
<path d="M132.219 82.6273C134.519 82.6273 136.383 80.7631 136.383 78.4636C136.383 76.164 134.519 74.2998 132.219 74.2998C129.919 74.2998 128.055 76.164 128.055 78.4636C128.055 80.7631 129.919 82.6273 132.219 82.6273Z" fill="#F9F9F9"/>
<path d="M166.201 87.7816C168.501 87.7816 170.366 85.9174 170.366 83.6179C170.366 81.3183 168.501 79.4541 166.201 79.4541C163.901 79.4541 162.037 81.3183 162.037 83.6179C162.037 85.9174 163.901 87.7816 166.201 87.7816Z" fill="#F9F9F9"/>
</svg>
