<svg width="202" height="38" viewBox="0 0 202 38" fill="none" xmlns="http://www.w3.org/2000/svg">
<path d="M15.6798 37.999C15.5622 37.999 15.4411 37.9782 15.327 37.9401L1.11694 33.1563C0.663907 33.0038 0.363037 32.5809 0.363037 32.1025C0.363037 31.6241 0.670824 31.2012 1.1204 31.0521L5.23921 29.6863C5.8202 29.4957 6.44615 29.8077 6.63635 30.39C6.82656 30.9724 6.51186 31.5998 5.93432 31.7905L4.966 32.1129L15.6728 35.7181L26.0926 32.0956L25.0413 31.7246C24.4638 31.5201 24.1629 30.8892 24.3669 30.3103C24.571 29.7314 25.2004 29.4298 25.7779 29.6343L29.8137 31.0591C30.2564 31.2151 30.5538 31.638 30.5538 32.106C30.5538 32.5739 30.2529 32.9969 29.8103 33.1494L16.0429 37.9366C15.9253 37.9782 15.8042 37.999 15.6798 37.999Z" fill="black"/>
<path d="M15.4585 30.9907C6.93385 30.9907 0 24.0403 0 15.4953C0 6.95037 6.93385 0 15.4585 0C15.6695 0 15.877 0.00693304 16.0844 0.0173326C16.6343 0.0381317 17.0839 0.464513 17.1392 1.01222C17.4574 4.10089 19.9335 6.48932 23.0287 6.69038C23.5993 6.72851 24.0489 7.19649 24.0627 7.76847C24.1457 11.027 26.646 13.6823 29.8864 13.9423C30.4467 13.9874 30.8859 14.4485 30.9032 15.0135L30.9066 15.1106C30.9101 15.2388 30.9135 15.3705 30.9135 15.4988C30.917 24.0403 23.9832 30.9907 15.4585 30.9907ZM15.0988 2.22204C7.96096 2.4127 2.2133 8.29538 2.2133 15.4953C2.2133 22.8166 8.15462 28.7721 15.4585 28.7721C22.5895 28.7721 28.4236 23.0939 28.6933 16.0084C25.1382 15.2908 22.42 12.3963 21.9289 8.78762C18.5329 8.18098 15.8424 5.59496 15.0988 2.22204Z" fill="black"/>
<path d="M11.3985 10.6625C12.386 10.6625 13.1865 9.86012 13.1865 8.87032C13.1865 7.88052 12.386 7.07812 11.3985 7.07812C10.4111 7.07812 9.6106 7.88052 9.6106 8.87032C9.6106 9.86012 10.4111 10.6625 11.3985 10.6625Z" fill="black"/>
<path d="M15.4447 17.2406C16.4321 17.2406 17.2326 16.4382 17.2326 15.4484C17.2326 14.4586 16.4321 13.6562 15.4447 13.6562C14.4572 13.6562 13.6567 14.4586 13.6567 15.4484C13.6567 16.4382 14.4572 17.2406 15.4447 17.2406Z" fill="black"/>
<path d="M15.6661 24.9399C16.6535 24.9399 17.454 24.1375 17.454 23.1477C17.454 22.1579 16.6535 21.3555 15.6661 21.3555C14.6787 21.3555 13.8782 22.1579 13.8782 23.1477C13.8782 24.1375 14.6787 24.9399 15.6661 24.9399Z" fill="black"/>
<path d="M7.8226 18.35C8.81004 18.35 9.61053 17.5476 9.61053 16.5578C9.61053 15.568 8.81004 14.7656 7.8226 14.7656C6.83515 14.7656 6.03467 15.568 6.03467 16.5578C6.03467 17.5476 6.83515 18.35 7.8226 18.35Z" fill="black"/>
<path d="M22.4132 20.5688C23.4006 20.5688 24.2011 19.7664 24.2011 18.7766C24.2011 17.7868 23.4006 16.9844 22.4132 16.9844C21.4257 16.9844 20.6252 17.7868 20.6252 18.7766C20.6252 19.7664 21.4257 20.5688 22.4132 20.5688Z" fill="black"/>
<path d="M47.2367 27.3651C46.2787 27.3651 45.39 27.1883 44.5704 26.8382C43.7507 26.4881 43.0418 26.0132 42.4539 25.4135C41.8625 24.8138 41.4026 24.1101 41.0671 23.3024C40.7317 22.4947 40.5657 21.635 40.5657 20.7233V20.6748C40.5657 19.7631 40.7317 18.8999 41.0671 18.0853C41.4026 17.2706 41.8625 16.56 42.4539 15.9499C43.0453 15.3432 43.7507 14.8649 44.5704 14.5113C45.3934 14.1612 46.296 13.9844 47.2851 13.9844C48.4955 13.9844 49.5019 14.175 50.3007 14.5598C51.0961 14.9446 51.7982 15.4715 52.4068 16.1405L50.1831 18.5394C49.7681 18.1061 49.3428 17.7629 48.9036 17.5098C48.4644 17.2533 47.918 17.125 47.2644 17.125C46.8009 17.125 46.3825 17.2186 46.009 17.4024C45.6355 17.5861 45.307 17.8391 45.0268 18.1581C44.7467 18.477 44.5323 18.8479 44.3802 19.2743C44.228 19.6972 44.1519 20.1478 44.1519 20.6297V20.6782C44.1519 21.1739 44.228 21.6384 44.3802 22.0683C44.5323 22.4981 44.7502 22.876 45.0372 23.1949C45.3243 23.5138 45.6666 23.7669 46.0643 23.9506C46.462 24.1343 46.9082 24.2279 47.4027 24.2279C48.0079 24.2279 48.5405 24.1031 48.9935 23.857C49.4465 23.6109 49.8996 23.2781 50.3457 22.8621L52.476 25.0218C51.8535 25.7081 51.1445 26.2732 50.3457 26.7134C49.5468 27.1467 48.5128 27.3651 47.2367 27.3651Z" fill="black"/>
<path d="M60.6548 27.3647C59.6657 27.3647 58.7493 27.1914 57.9055 26.8482C57.0582 26.505 56.332 26.0336 55.7164 25.4338C55.1008 24.8341 54.6201 24.1304 54.2674 23.3227C53.9181 22.515 53.7417 21.6484 53.7417 20.7194V20.6709C53.7417 19.7453 53.9181 18.8752 54.2674 18.0675C54.6201 17.2598 55.1043 16.5526 55.7268 15.946C56.3492 15.3393 57.0824 14.861 57.9262 14.5074C58.77 14.1573 59.6969 13.9805 60.6998 13.9805C61.6888 13.9805 62.6053 14.1538 63.4491 14.497C64.2929 14.8402 65.0226 15.3116 65.6382 15.9113C66.2503 16.511 66.7345 17.2147 67.0837 18.0224C67.4365 18.8301 67.6094 19.6968 67.6094 20.6258V20.6743C67.6094 21.5999 67.433 22.47 67.0837 23.2777C66.7345 24.0854 66.2468 24.7925 65.6243 25.3992C65.0019 26.0058 64.2687 26.4877 63.4249 26.8378C62.5845 27.1914 61.6612 27.3647 60.6548 27.3647ZM60.7032 24.224C61.2289 24.224 61.6957 24.1339 62.1004 23.9467C62.5084 23.763 62.8543 23.5099 63.1413 23.191C63.4283 22.8721 63.6462 22.5012 63.7984 22.0748C63.9505 21.6519 64.0266 21.2012 64.0266 20.7194V20.6709C64.0266 20.1925 63.9471 19.7384 63.788 19.3154C63.6289 18.8925 63.3972 18.5181 63.0929 18.1888C62.7886 17.8595 62.4324 17.5995 62.0174 17.4089C61.6024 17.2182 61.1493 17.1211 60.6548 17.1211C60.1291 17.1211 59.6623 17.2147 59.2542 17.3985C58.8496 17.5822 58.5003 17.8352 58.2133 18.1542C57.9262 18.4731 57.7083 18.844 57.5562 19.2704C57.404 19.6933 57.3279 20.1439 57.3279 20.6258V20.6743C57.3279 21.1527 57.4075 21.6068 57.5666 22.0297C57.7256 22.4526 57.9573 22.8305 58.2617 23.1563C58.566 23.4857 58.9187 23.7457 59.3268 23.9363C59.7349 24.127 60.1914 24.224 60.7032 24.224Z" fill="black"/>
<path d="M76.0579 27.3647C75.0688 27.3647 74.1524 27.1914 73.3085 26.8482C72.4613 26.505 71.735 26.0336 71.1194 25.4338C70.5039 24.8341 70.0232 24.1304 69.6704 23.3227C69.3211 22.515 69.1448 21.6484 69.1448 20.7194V20.6709C69.1448 19.7453 69.3211 18.8752 69.6704 18.0675C70.0232 17.2598 70.5073 16.5526 71.1298 15.946C71.7523 15.3393 72.4855 14.861 73.3293 14.5074C74.1731 14.1573 75.0999 13.9805 76.1028 13.9805C77.0919 13.9805 78.0083 14.1538 78.8522 14.497C79.696 14.8402 80.4257 15.3116 81.0413 15.9113C81.6534 16.511 82.1375 17.2147 82.4868 18.0224C82.8396 18.8301 83.0125 19.6968 83.0125 20.6258V20.6743C83.0125 21.5999 82.8361 22.47 82.4868 23.2777C82.1375 24.0854 81.6499 24.7925 81.0274 25.3992C80.4049 26.0058 79.6718 26.4877 78.828 26.8378C77.9876 27.1914 77.0642 27.3647 76.0579 27.3647ZM76.1063 24.224C76.632 24.224 77.0988 24.1339 77.5034 23.9467C77.9115 23.763 78.2573 23.5099 78.5444 23.191C78.8314 22.8721 79.0493 22.5012 79.2015 22.0748C79.3536 21.6519 79.4297 21.2012 79.4297 20.7194V20.6709C79.4297 20.1925 79.3502 19.7384 79.1911 19.3154C79.032 18.8925 78.8003 18.5181 78.496 18.1888C78.1916 17.8595 77.8354 17.5995 77.4204 17.4089C77.0054 17.2182 76.5524 17.1211 76.0579 17.1211C75.5322 17.1211 75.0653 17.2147 74.6573 17.3985C74.2527 17.5822 73.9034 17.8352 73.6163 18.1542C73.3293 18.4731 73.1114 18.844 72.9593 19.2704C72.8071 19.6933 72.731 20.1439 72.731 20.6258V20.6743C72.731 21.1527 72.8105 21.6068 72.9696 22.0297C73.1287 22.4526 73.3604 22.8305 73.6647 23.1563C73.9691 23.4857 74.3218 23.7457 74.7299 23.9363C75.138 24.127 75.5945 24.224 76.1063 24.224Z" fill="black"/>
<path d="M92.5712 26.9515L88.615 21.4744V26.9515H85.1187V9.60156H88.615V19.9872L92.3222 14.5587H96.6485L92.1493 20.7568L96.773 26.9549H92.5712V26.9515Z" fill="black"/>
<path d="M98.8721 14.5703H102.202V27.0775H98.8721V14.5703Z" fill="black"/>
<path d="M119.145 14.6853H120.988V17.1778C121.244 16.8103 121.527 16.4567 121.835 16.1239C122.146 15.7877 122.492 15.4965 122.876 15.2504C123.26 15.0043 123.685 14.8032 124.156 14.6507C124.626 14.4981 125.148 14.4219 125.722 14.4219C126.455 14.4219 127.178 14.5675 127.887 14.8517C128.596 15.1394 129.232 15.5589 129.789 16.1101C130.346 16.6612 130.792 17.3338 131.127 18.1241C131.463 18.9145 131.629 19.8227 131.629 20.8453V20.8939C131.629 21.8992 131.463 22.8039 131.127 23.6012C130.792 24.402 130.349 25.0745 129.8 25.6291C129.25 26.1803 128.62 26.6032 127.911 26.8979C127.202 27.1925 126.473 27.3416 125.722 27.3416C125.148 27.3416 124.622 27.2688 124.142 27.1267C123.665 26.9811 123.232 26.7904 122.852 26.5512C122.468 26.312 122.122 26.0312 121.811 25.7123C121.5 25.3934 121.223 25.0572 120.984 24.7036V30.9121H119.141V14.6853H119.145ZM125.39 25.6881C125.982 25.6881 126.542 25.5806 127.078 25.3657C127.614 25.1508 128.074 24.8388 128.465 24.4297C128.855 24.0207 129.167 23.5215 129.398 22.9322C129.63 22.3429 129.744 21.6704 129.744 20.9181V20.8696C129.744 20.1347 129.63 19.4726 129.398 18.8798C129.167 18.287 128.852 17.7844 128.454 17.3684C128.057 16.9524 127.593 16.6335 127.067 16.4082C126.542 16.1863 125.982 16.0719 125.394 16.0719C124.82 16.0719 124.266 16.1863 123.73 16.4186C123.194 16.6508 122.717 16.9767 122.295 17.4031C121.873 17.826 121.538 18.3286 121.292 18.9145C121.043 19.4969 120.922 20.1416 120.922 20.8453V20.8939C120.922 21.6149 121.047 22.2701 121.292 22.8594C121.538 23.4522 121.873 23.9548 122.295 24.3708C122.717 24.7868 123.194 25.1092 123.73 25.3414C124.259 25.5737 124.816 25.6881 125.39 25.6881Z" fill="black"/>
<path d="M146.489 14.6853V27.0781H144.857V24.6481C143.819 26.3085 142.063 27.3762 139.863 27.3762C136.377 27.3762 133.483 24.551 133.483 20.8834C133.483 17.2158 136.377 14.3906 139.863 14.3906C142.063 14.3906 143.819 15.4548 144.857 17.1188V14.6887H146.489V14.6853ZM144.857 20.8834C144.857 18.131 142.73 15.9748 139.984 15.9748C137.238 15.9748 135.112 18.131 135.112 20.8834C135.112 23.6358 137.238 25.792 139.984 25.792C142.73 25.792 144.857 23.6324 144.857 20.8834Z" fill="black"/>
<path d="M149.781 14.6862H151.625V17.9239C151.846 17.4109 152.126 16.9394 152.462 16.5096C152.797 16.0797 153.181 15.7053 153.61 15.3933C154.039 15.0814 154.509 14.8456 155.021 14.6862C155.533 14.5267 156.082 14.4539 156.67 14.4713V16.461H156.529C155.858 16.461 155.225 16.5824 154.627 16.8216C154.028 17.0607 153.506 17.4213 153.06 17.8996C152.614 18.378 152.261 18.9743 152.009 19.6849C151.756 20.3955 151.625 21.2171 151.625 22.1427V27.0824H149.781V14.6862Z" fill="black"/>
<path d="M166.578 27.0766L160.333 21.0414V27.0766H158.683V9.54297H160.333V20.0881L166.281 14.5521H168.529L162.083 20.563L168.778 27.0766H166.578Z" fill="black"/>
<path d="M172.343 14.5703H170.503V27.0775H172.343V14.5703Z" fill="black"/>
<path d="M175.67 14.6858H177.513V16.8454C177.928 16.1729 178.471 15.6044 179.139 15.133C179.81 14.6615 180.678 14.4258 181.746 14.4258C182.497 14.4258 183.161 14.5471 183.745 14.7863C184.326 15.0255 184.821 15.3652 185.229 15.8055C185.637 16.2457 185.948 16.7691 186.163 17.3758C186.377 17.9824 186.484 18.6549 186.484 19.3898V27.0855H184.641V19.8543C184.641 18.7069 184.347 17.7952 183.756 17.1262C183.164 16.4572 182.32 16.1209 181.221 16.1209C180.695 16.1209 180.204 16.211 179.751 16.3948C179.298 16.5785 178.904 16.8419 178.568 17.1851C178.233 17.5283 177.973 17.9408 177.79 18.4192C177.607 18.8976 177.517 19.4245 177.517 19.9965V27.0786H175.674V14.6858H175.67Z" fill="black"/>
<path d="M194.922 30.9637C193.885 30.9637 192.896 30.8181 191.955 30.5338C191.015 30.2461 190.129 29.8128 189.299 29.2408L190.136 27.8022C190.855 28.3152 191.602 28.7035 192.384 28.9773C193.166 29.2477 194.002 29.3829 194.895 29.3829C196.264 29.3829 197.357 29.012 198.17 28.2667C198.982 27.5249 199.39 26.426 199.39 24.9701V23.5072C198.848 24.2282 198.187 24.8418 197.405 25.3514C196.624 25.8644 195.666 26.1175 194.535 26.1175C193.785 26.1175 193.065 25.9823 192.37 25.7119C191.675 25.4415 191.059 25.0532 190.517 24.5471C189.974 24.0445 189.538 23.4379 189.213 22.7237C188.888 22.0096 188.722 21.2089 188.722 20.3145V20.266C188.722 19.3543 188.884 18.5397 189.213 17.8221C189.541 17.1045 189.974 16.4909 190.517 15.9883C191.059 15.4857 191.682 15.0974 192.381 14.827C193.083 14.5566 193.798 14.418 194.535 14.418C195.109 14.418 195.638 14.4873 196.126 14.6225C196.613 14.7577 197.049 14.9379 197.44 15.1633C197.831 15.3886 198.184 15.652 198.505 15.9536C198.823 16.2587 199.11 16.5776 199.366 16.9139V14.6849H201.206V24.9215C201.206 25.8817 201.071 26.7241 200.801 27.4521C200.528 28.18 200.141 28.7971 199.629 29.3101C199.072 29.8682 198.391 30.2842 197.596 30.5581C196.807 30.8285 195.911 30.9637 194.922 30.9637ZM194.902 24.4882C195.49 24.4882 196.057 24.3877 196.6 24.1901C197.143 23.989 197.623 23.7013 198.049 23.3269C198.471 22.9525 198.809 22.5088 199.065 21.9958C199.321 21.4827 199.449 20.9177 199.449 20.2937V20.2452C199.449 19.6073 199.321 19.0319 199.065 18.5189C198.809 18.0058 198.471 17.569 198.049 17.2016C197.627 16.8341 197.143 16.5499 196.6 16.3523C196.057 16.1512 195.493 16.0542 194.902 16.0542C194.31 16.0542 193.757 16.1547 193.238 16.3523C192.719 16.5533 192.266 16.8307 191.876 17.1912C191.485 17.5517 191.177 17.985 190.956 18.4981C190.731 19.0111 190.62 19.5865 190.62 20.2244V20.2729C190.62 20.8969 190.734 21.4689 190.966 21.9854C191.198 22.5054 191.509 22.9491 191.9 23.3165C192.291 23.684 192.744 23.9717 193.262 24.1797C193.781 24.3842 194.328 24.4882 194.902 24.4882Z" fill="black"/>
<path d="M114.403 23.0444C113.964 23.4257 113.674 23.6406 113.162 23.9665C112.474 24.4033 111.785 24.5904 111.094 24.5281C110.402 24.4657 109.762 24.1294 109.171 23.5228L116.707 18.7355C116.627 18.5795 116.547 18.4304 116.468 18.2918C116.388 18.1531 116.312 18.0214 116.236 17.9001C115.749 17.1305 115.178 16.458 114.521 15.8826C113.864 15.3071 113.144 14.8842 112.359 14.6173C111.574 14.3469 110.751 14.2637 109.887 14.3573C109.022 14.4543 108.137 14.7871 107.238 15.3591C106.442 15.8652 105.813 16.4719 105.346 17.1825C104.883 17.8931 104.575 18.6558 104.426 19.4704C104.281 20.285 104.291 21.117 104.464 21.9732C104.637 22.8295 104.966 23.6406 105.453 24.4102L105.477 24.4518C106.007 25.2872 106.629 25.9597 107.342 26.4589C108.057 26.9615 108.822 27.3013 109.645 27.4815C110.464 27.6618 111.308 27.6652 112.173 27.4919C113.037 27.3221 113.874 26.9789 114.68 26.4658C115.13 26.1816 115.52 25.8731 115.866 25.5472L114.403 23.0444ZM107.629 19.4496C107.76 18.7806 108.151 18.2363 108.797 17.8273C109.444 17.4182 110.105 17.2865 110.776 17.4217C111.45 17.5569 112.01 18.0561 112.508 18.5275L107.881 21.4671C107.591 20.8431 107.497 20.1186 107.629 19.4496Z" fill="black"/>
<path d="M100.387 12.8853C101.416 12.8853 102.251 12.0488 102.251 11.0169C102.251 9.98497 101.416 9.14844 100.387 9.14844C99.3575 9.14844 98.5229 9.98497 98.5229 11.0169C98.5229 12.0488 99.3575 12.8853 100.387 12.8853Z" fill="black"/>
<path d="M171.423 11.667C172.096 11.667 172.641 11.1207 172.641 10.4468C172.641 9.77287 172.096 9.22656 171.423 9.22656C170.751 9.22656 170.206 9.77287 170.206 10.4468C170.206 11.1207 170.751 11.667 171.423 11.667Z" fill="black"/>
</svg>
