<svg width="23" height="23" viewBox="0 0 23 23" fill="none" xmlns="http://www.w3.org/2000/svg">
<path d="M18.4019 18.3988H5.42708C4.03819 18.3988 2.91046 17.2831 2.91046 15.909C2.91046 15.4157 3.05884 14.9284 3.34374 14.5173L4.29341 13.1256C4.5427 12.7616 4.67327 12.3388 4.66734 11.8984V7.47671C4.60798 3.59527 7.65285 0.359765 11.5702 0.136626C15.5707 -0.045408 18.9657 3.01394 19.1497 6.97171C19.1557 7.08328 19.1557 7.19485 19.1557 7.30642V11.8984C19.1557 12.3329 19.2862 12.7616 19.5296 13.1256L20.4793 14.5173C21.2568 15.6565 20.9541 17.2067 19.8026 17.976C19.3931 18.252 18.9064 18.3988 18.4019 18.3988ZM11.9145 2.00394H11.6533C8.74496 2.18598 6.49545 4.5994 6.5548 7.48258V11.9043C6.5548 12.7146 6.31144 13.5015 5.85442 14.1709L4.90476 15.5625C4.76824 15.7563 4.75637 16.003 4.86915 16.2085C4.97598 16.414 5.18966 16.5432 5.42708 16.5373H18.4019C18.6393 16.5432 18.853 16.414 18.9598 16.2085C19.0726 16.003 19.0607 15.7563 18.9242 15.5625L17.9745 14.1709C17.5175 13.5015 17.2741 12.7087 17.2741 11.9043V7.31229C17.2741 4.37626 14.8762 2.00394 11.9145 2.00394Z" fill="#999999"/>
<path d="M11.915 22.1288C9.31532 22.1288 7.20825 20.0442 7.20825 17.4722C7.20825 16.9555 7.62966 16.5386 8.15198 16.5386C8.67429 16.5386 9.09571 16.9555 9.09571 17.4722C9.09571 19.0166 10.3599 20.2673 11.921 20.2673C13.482 20.2673 14.7462 19.0166 14.7462 17.4722C14.7462 16.9555 15.1676 16.5386 15.6899 16.5386C16.2123 16.5386 16.6337 16.9555 16.6337 17.4722C16.6218 20.0383 14.5147 22.1229 11.915 22.1288Z" fill="#999999"/>
</svg>
