<svg width="21" height="25" viewBox="0 0 21 25" fill="none" xmlns="http://www.w3.org/2000/svg">
<path d="M15.4914 21.2699H2.51661C1.12773 21.2699 0 20.1542 0 18.7801C0 18.2868 0.148383 17.7995 0.433282 17.3884L1.38295 15.9967C1.63224 15.6327 1.76281 15.2099 1.75687 14.7695V10.3478C1.69752 6.46637 4.74239 3.23086 8.65975 3.00772C12.6602 2.82569 16.0553 5.88503 16.2393 9.84281C16.2452 9.95438 16.2452 10.0659 16.2452 10.1775V14.7695C16.2452 15.204 16.3758 15.6327 16.6191 15.9967L17.5688 17.3884C18.3463 18.5276 18.0436 20.0778 16.8922 20.8471C16.4826 21.1231 15.9959 21.2699 15.4914 21.2699ZM9.00401 4.87504H8.74285C5.8345 5.05707 3.58498 7.47049 3.64434 10.3537V14.7753C3.64434 15.5857 3.40098 16.3725 2.94396 17.042L1.9943 18.4336C1.85778 18.6274 1.84591 18.874 1.95869 19.0796C2.06552 19.2851 2.2792 19.4143 2.51661 19.4084H15.4914C15.7288 19.4143 15.9425 19.2851 16.0493 19.0796C16.1621 18.874 16.1502 18.6274 16.0137 18.4336L15.0641 17.042C14.607 16.3725 14.3637 15.5798 14.3637 14.7753V10.1834C14.3637 7.24735 11.9658 4.87504 9.00401 4.87504Z" fill="#999999"/>
<path d="M9.00462 25.0004C6.40492 25.0004 4.29785 22.9158 4.29785 20.3438C4.29785 19.8271 4.71926 19.4102 5.24158 19.4102C5.76389 19.4102 6.18531 19.8271 6.18531 20.3438C6.18531 21.8882 7.44954 23.1389 9.01055 23.1389C10.5716 23.1389 11.8358 21.8882 11.8358 20.3438C11.8358 19.8271 12.2572 19.4102 12.7795 19.4102C13.3019 19.4102 13.7233 19.8271 13.7233 20.3438C13.7114 22.9099 11.6043 24.9945 9.00462 25.0004Z" fill="#999999"/>
<circle cx="15.5" cy="5.5" r="5.5" fill="#FF7134"/>
</svg>
