<svg width="22" height="22" viewBox="0 0 22 22" fill="none" xmlns="http://www.w3.org/2000/svg">
<path d="M11 22C4.92413 22 0 17.0759 0 11C0 4.92414 4.92413 0 11 0C17.0758 0 22 4.92414 22 11C21.9941 17.0759 17.0758 21.9941 11 22ZM11 1.86271C5.95244 1.86271 1.8627 5.95246 1.8627 11C1.8627 16.0475 5.95244 20.1373 11 20.1373C16.0475 20.1373 20.1373 16.0475 20.1373 11C20.1314 5.95833 16.0416 1.86859 11 1.86271Z" fill="#999999"/>
<path d="M10.9993 7.53295C11.6159 7.53295 12.1158 7.0331 12.1158 6.4165C12.1158 5.7999 11.6159 5.30005 10.9993 5.30005C10.3827 5.30005 9.88287 5.7999 9.88287 6.4165C9.88287 7.0331 10.3827 7.53295 10.9993 7.53295Z" fill="#999999"/>
<path d="M10.8998 8.81995H11.0995C11.5285 8.81995 11.881 9.17251 11.881 9.60146V15.9182C11.881 16.3472 11.5285 16.6998 11.0995 16.6998H10.8998C10.4708 16.6998 10.1182 16.3472 10.1182 15.9182V9.60734C10.1182 9.17251 10.4708 8.81995 10.8998 8.81995Z" fill="#999999"/>
</svg>
