<svg width="32" height="32" viewBox="0 0 32 32" fill="none" xmlns="http://www.w3.org/2000/svg">
    <path
        d="M13.7309 23.1392C8.50048 23.1392 4.2666 18.899 4.2666 13.6748C4.2666 8.45074 8.50683 4.21051 13.7309 4.21051C18.9551 4.21051 23.1953 8.45074 23.1953 13.6748C23.1953 18.899 18.9614 23.1328 13.7309 23.1392ZM13.7309 6.21637C9.61767 6.21637 6.2788 9.55523 6.2788 13.6685C6.2788 17.7818 9.61767 21.1206 13.7309 21.1206C17.8442 21.1206 21.1831 17.7818 21.1831 13.6685C21.1831 9.55523 17.8442 6.22271 13.7309 6.21637Z"
        fill="#777777" />
    <path
        d="M27.0298 27.969C26.7632 27.969 26.5029 27.8611 26.3188 27.677L19.0063 20.3645C18.6128 19.9709 18.6128 19.3298 19.0063 18.9363C19.3999 18.5427 20.041 18.5427 20.4346 18.9363L27.747 26.2488C28.1343 26.6423 28.1343 27.2771 27.747 27.677C27.5503 27.8674 27.2964 27.969 27.0298 27.969Z"
        fill="#777777" />
</svg>