<svg width="22" height="23" viewBox="0 0 22 23" fill="none" xmlns="http://www.w3.org/2000/svg">
<circle cx="11" cy="11.5" r="9.25" stroke="#777777" stroke-width="1.5"/>
<path d="M11.3803 5.51501C12.5363 5.51501 13.4599 5.83235 14.1513 6.46701C14.8539 7.10168 15.2053 7.96868 15.2053 9.06802C15.2053 10.2127 14.8426 11.074 14.1173 11.652C13.3919 12.23 12.4286 12.519 11.2273 12.519L11.1593 13.862H9.47626L9.39126 11.193H9.95226C11.0516 11.193 11.8903 11.0457 12.4683 10.751C13.0576 10.4563 13.3523 9.89535 13.3523 9.06802C13.3523 8.46735 13.1766 7.99701 12.8253 7.65701C12.4853 7.31701 12.0093 7.14701 11.3973 7.14701C10.7853 7.14701 10.3036 7.31135 9.95226 7.64001C9.60093 7.96868 9.42526 8.42768 9.42526 9.01702H7.60626C7.60626 8.33702 7.75926 7.73068 8.06526 7.19802C8.37126 6.66535 8.8076 6.25168 9.37426 5.95702C9.95226 5.66235 10.6209 5.51501 11.3803 5.51501ZM10.2923 17.619C9.94093 17.619 9.64626 17.5 9.40826 17.262C9.17026 17.024 9.05126 16.7293 9.05126 16.378C9.05126 16.0267 9.17026 15.732 9.40826 15.494C9.64626 15.256 9.94093 15.137 10.2923 15.137C10.6323 15.137 10.9213 15.256 11.1593 15.494C11.3973 15.732 11.5163 16.0267 11.5163 16.378C11.5163 16.7293 11.3973 17.024 11.1593 17.262C10.9213 17.5 10.6323 17.619 10.2923 17.619Z" fill="#777777"/>
</svg>
