<svg width="16" height="16" viewBox="0 0 16 16" fill="none" xmlns="http://www.w3.org/2000/svg">
<path d="M8.5 3.2V1.194C8.5 0.750411 7.96528 0.526491 7.6492 0.837713L5.1612 3.28743C4.76334 3.67917 4.76334 4.32083 5.1612 4.71257L7.6492 7.16229C7.96528 7.47351 8.5 7.24959 8.5 6.806V4.8C11.1894 4.8 13.375 6.952 13.375 9.6C13.375 12.248 11.1894 14.4 8.5 14.4C6.09054 14.4 4.08543 12.6727 3.69414 10.4088C3.61771 9.96667 3.26123 9.6 2.8125 9.6C2.36377 9.6 1.99452 9.96567 2.0516 10.4108C2.45597 13.5636 5.18769 16 8.5 16C12.0912 16 15 13.136 15 9.6C15 6.064 12.0912 3.2 8.5 3.2Z" fill="white"/>
</svg>
