<svg width="40" height="40" viewBox="0 0 40 40" fill="none" xmlns="http://www.w3.org/2000/svg">
<path d="M23.1331 32.0333H16.9505C14.8558 32.0269 13.1102 30.421 12.9198 28.3326L11.701 13.7076L13.7132 13.5363L14.9447 28.1612C15.0272 29.2086 15.9095 30.0147 16.9569 30.0147H23.1331C24.1805 30.0084 25.0501 29.2022 25.1453 28.1612L26.3514 13.5363L28.3636 13.7076L27.1322 28.3326C26.9544 30.4146 25.2215 32.0143 23.1331 32.0333Z" fill="white" fill-opacity="0.92"/>
<path d="M30.2678 14.635H9.80937C9.25078 14.635 8.80009 14.1843 8.80009 13.6257C8.80009 13.0671 9.25078 12.6165 9.80937 12.6165H30.2678C30.8264 12.6165 31.2771 13.0671 31.2771 13.6257C31.2771 14.1843 30.8264 14.635 30.2678 14.635Z" fill="white" fill-opacity="0.92"/>
<path d="M25.4055 14.6323H23.3933V13.623C23.3933 11.7759 21.8953 10.2778 20.0481 10.2778C18.2073 10.3032 16.722 11.7886 16.7029 13.623V14.6323H14.6907V13.623C14.6907 10.6587 17.0965 8.25929 20.0545 8.26564C23.0125 8.26564 25.4119 10.665 25.4119 13.623V14.6323H25.4055Z" fill="white" fill-opacity="0.92"/>
<path d="M21.9206 26.5437H21.8508C21.2985 26.5056 20.8732 26.0295 20.9113 25.4709L21.3112 19.6691C21.3493 19.1106 21.8317 18.6916 22.384 18.7297C22.9426 18.7678 23.3615 19.2502 23.3234 19.8024L22.9235 25.6042C22.8918 26.1374 22.4538 26.5437 21.9206 26.5437Z" fill="white" fill-opacity="0.92"/>
<path d="M18.1627 26.5464C17.6295 26.5464 17.1915 26.1338 17.1598 25.6006L16.7599 19.7989C16.7218 19.2403 17.1471 18.7642 17.6993 18.7261C18.2579 18.688 18.734 19.1133 18.7721 19.6656L19.172 25.4673C19.2101 26.0196 18.7911 26.502 18.2325 26.5401L18.1627 26.5464Z" fill="white" fill-opacity="0.92"/>
</svg>
