<svg width="32" height="32" viewBox="0 0 32 32" fill="current" xmlns="http://www.w3.org/2000/svg">
<path d="M23.7255 28.9936H8.26809C5.90975 28.9936 4 27.0838 4 24.7255V9.26809C4 6.90975 5.90975 5 8.26809 5H15.9968C16.5607 5 17.0158 5.45501 17.0158 6.01896C17.0158 6.58291 16.5607 7.03792 15.9968 7.03792H8.26809C7.03124 7.03792 6.03151 8.03765 6.03151 9.2745V24.7319C6.03151 25.9688 7.03124 26.9685 8.26809 26.9685H23.7255C24.9624 26.9685 25.9621 25.9688 25.9621 24.7319V16.9968C25.9621 16.4328 26.4171 15.9778 26.981 15.9778C27.545 15.9778 28 16.4328 28 16.9968V24.7255C27.9936 27.0838 26.0838 28.9936 23.7255 28.9936Z" fill="current"/>
<path d="M10.9604 23.0513C10.3964 23.0513 9.94141 22.5963 9.94141 22.0387C9.94141 21.9554 9.95422 21.8657 9.97345 21.7824L11.1462 17.2195C11.1911 17.0401 11.2808 16.8798 11.409 16.7517L22.861 5.29319C23.2584 4.90227 23.8992 4.90227 24.303 5.29319L27.6995 8.68972C28.0968 9.08705 28.0968 9.73431 27.6995 10.1316L16.241 21.5837C16.1128 21.7119 15.9526 21.8016 15.7732 21.8465L11.2103 23.0128C11.127 23.0385 11.0437 23.0513 10.9604 23.0513ZM13.0431 18.0142L12.3702 20.6481L15.0042 19.9752L25.559 9.41389L23.5852 7.44005L13.0431 18.0142Z" fill="current"/>
<path d="M24.059 13.3401C23.7898 13.3401 23.5335 13.2311 23.3412 13.0389L19.9447 9.64233C19.573 9.22577 19.605 8.57851 20.028 8.20681C20.4125 7.86075 20.9957 7.86075 21.3802 8.20681L24.7767 11.6033C25.174 12.0071 25.1676 12.6543 24.7639 13.0453C24.5781 13.2311 24.3281 13.3401 24.059 13.3401Z" fill="current"/>
</svg>
