<svg width="17" height="17" viewBox="0 0 17 17" fill="none" xmlns="http://www.w3.org/2000/svg">
<path d="M0 5.50781V12.5802C0 15.0556 3.78713 17.0005 8.5 17.0005C13.2129 17.0005 17 14.9672 17 12.5802V5.86143" fill="#DDDDDD"/>
<path d="M16.3 5.42027C16.3 6.24733 15.6414 7.16871 14.1874 7.92483C12.7679 8.66305 10.7582 9.14054 8.5 9.14054C6.24181 9.14054 4.23211 8.66305 2.81256 7.92483C1.35856 7.16871 0.7 6.24733 0.7 5.42027C0.7 4.59322 1.35856 3.67184 2.81256 2.91571C4.23211 2.17749 6.24181 1.7 8.5 1.7C10.7582 1.7 12.7679 2.17749 14.1874 2.91571C15.6414 3.67184 16.3 4.59322 16.3 5.42027Z" fill="white" stroke="#DDDDDD" stroke-width="1.4" stroke-miterlimit="10"/>
</svg>
