<svg width="32" height="32" viewBox="0 0 32 32" fill="none" xmlns="http://www.w3.org/2000/svg">
<mask id="path-1-inside-1_3284_2401" fill="white">
<path fill-rule="evenodd" clip-rule="evenodd" d="M7.49739 8.31547C6.36783 7.02187 7.28654 5 9.00389 5H23.486C25.2033 5 26.122 7.02187 24.9925 8.31547L21.3677 12.4667V17.4L23.7926 19.4828C25.2004 20.692 24.3453 23 22.4895 23L10.0004 23C8.14455 23 7.28943 20.692 8.69723 19.4828L11.1222 17.4V12.4667L7.49739 8.31547Z"/>
</mask>
<path d="M7.49739 8.31547L6.21686 9.43362H6.21686L7.49739 8.31547ZM24.9925 8.31547L26.273 9.43362V9.43362L24.9925 8.31547ZM21.3677 12.4667L20.0871 11.3485L19.6677 11.8289V12.4667H21.3677ZM21.3677 17.4H19.6677V18.1809L20.26 18.6896L21.3677 17.4ZM23.7926 19.4828L22.6849 20.7724V20.7724L23.7926 19.4828ZM22.4895 23V24.7V23ZM10.0004 23L10.0004 21.3H10.0004V23ZM8.69723 19.4828L9.80489 20.7724H9.80489L8.69723 19.4828ZM11.1222 17.4L12.2298 18.6896L12.8222 18.1808V17.4H11.1222ZM11.1222 12.4667H12.8222V11.8289L12.4027 11.3485L11.1222 12.4667ZM9.00389 3.3C5.82678 3.3 4.12718 7.04047 6.21686 9.43362L8.77791 7.19732C8.72197 7.13325 8.70675 7.08235 8.70192 7.0433C8.6961 6.99617 8.70309 6.93681 8.73076 6.8759C8.75844 6.81498 8.79856 6.77068 8.83789 6.74407C8.87047 6.72201 8.91883 6.7 9.00389 6.7V3.3ZM23.486 3.3H9.00389V6.7H23.486V3.3ZM26.273 9.43362C28.3627 7.04047 26.6631 3.3 23.486 3.3V6.7C23.571 6.7 23.6194 6.72201 23.652 6.74407C23.6913 6.77068 23.7314 6.81498 23.7591 6.87589C23.7868 6.9368 23.7938 6.99617 23.788 7.04329C23.7831 7.08235 23.7679 7.13325 23.712 7.19732L26.273 9.43362ZM22.6482 13.5848L26.273 9.43362L23.712 7.19732L20.0871 11.3485L22.6482 13.5848ZM19.6677 12.4667V17.4H23.0677V12.4667H19.6677ZM24.9003 18.1932L22.4753 16.1104L20.26 18.6896L22.6849 20.7724L24.9003 18.1932ZM22.4895 24.7C25.9227 24.7 27.5047 20.4302 24.9003 18.1932L22.6849 20.7724C22.759 20.8361 22.7788 20.8875 22.7871 20.9233C22.7978 20.9698 22.7967 21.0343 22.7708 21.1042C22.7449 21.1742 22.7037 21.2238 22.6652 21.2521C22.6357 21.2739 22.5871 21.3 22.4895 21.3V24.7ZM10.0004 24.7L22.4895 24.7V21.3L10.0004 21.3L10.0004 24.7ZM7.58957 18.1932C4.98514 20.4302 6.56712 24.7 10.0004 24.7V21.3C9.90268 21.3 9.85415 21.2739 9.8246 21.2521C9.78614 21.2238 9.74496 21.1742 9.71905 21.1042C9.69313 21.0343 9.69206 20.9698 9.70276 20.9233C9.71098 20.8875 9.73079 20.8361 9.80489 20.7724L7.58957 18.1932ZM10.0145 16.1104L7.58956 18.1932L9.80489 20.7724L12.2298 18.6896L10.0145 16.1104ZM12.8222 17.4V12.4667H9.42218V17.4H12.8222ZM6.21686 9.43362L9.84166 13.5848L12.4027 11.3485L8.77791 7.19732L6.21686 9.43362Z" fill="#999999" mask="url(#path-1-inside-1_3284_2401)"/>
<path d="M16.2451 23L16.2451 29" stroke="#999999" stroke-width="1.7" stroke-linecap="round"/>
</svg>
