<svg width="33" height="33" viewBox="0 0 33 33" fill="none" xmlns="http://www.w3.org/2000/svg">
<mask id="path-1-inside-1_2740:493" fill="white">
<path fill-rule="evenodd" clip-rule="evenodd" d="M7.74739 8.47074C6.61783 7.17715 7.53654 5.15527 9.25389 5.15527H23.736C25.4533 5.15527 26.372 7.17715 25.2425 8.47074L21.6177 12.622V17.5553L24.0426 19.6381C25.4504 20.8473 24.5953 23.1553 22.7395 23.1553L10.2504 23.1553C8.39455 23.1553 7.53943 20.8473 8.94723 19.6381L11.3722 17.5553V12.6219L7.74739 8.47074Z"/>
</mask>
<path d="M7.74739 8.47074L6.24089 9.78621V9.78621L7.74739 8.47074ZM25.2425 8.47074L26.749 9.78621V9.78621L25.2425 8.47074ZM21.6177 12.622L20.1112 11.3065L19.6177 11.8717V12.622H21.6177ZM21.6177 17.5553H19.6177V18.4739L20.3145 19.0725L21.6177 17.5553ZM24.0426 19.6381L22.7395 21.1553H22.7395L24.0426 19.6381ZM22.7395 23.1553V25.1553V23.1553ZM10.2504 23.1553L10.2504 21.1553H10.2504V23.1553ZM8.94723 19.6381L10.2504 21.1553H10.2504L8.94723 19.6381ZM11.3722 17.5553L12.6753 19.0724L13.3722 18.4739V17.5553H11.3722ZM11.3722 12.6219H13.3722V11.8716L12.8787 11.3065L11.3722 12.6219ZM9.25389 3.15527C5.81918 3.15527 3.98177 7.19903 6.24089 9.78621L9.25389 7.15528L9.25389 7.15527V3.15527ZM23.736 3.15527H9.25389V7.15527H23.736V3.15527ZM26.749 9.78621C29.0081 7.19902 27.1707 3.15527 23.736 3.15527V7.15527L23.736 7.15527L26.749 9.78621ZM23.1242 13.9374L26.749 9.78621L23.736 7.15527L20.1112 11.3065L23.1242 13.9374ZM19.6177 12.622V17.5553H23.6177V12.622H19.6177ZM25.3457 18.1209L22.9208 16.0381L20.3145 19.0725L22.7395 21.1553L25.3457 18.1209ZM22.7395 25.1553C26.4511 25.1553 28.1613 20.5393 25.3457 18.1209L22.7395 21.1553C22.7486 21.1632 22.7531 21.1682 22.7546 21.1699C22.756 21.1716 22.7554 21.1711 22.7537 21.1684C22.7521 21.1657 22.7502 21.162 22.7485 21.1577C22.7467 21.1533 22.7455 21.1493 22.7447 21.1457C22.7431 21.1387 22.7436 21.1361 22.7434 21.1387C22.7432 21.1417 22.7422 21.1477 22.7395 21.1553C22.7367 21.1628 22.7335 21.168 22.7317 21.1704C22.7301 21.1725 22.7314 21.1702 22.7372 21.1659C22.7401 21.1638 22.7437 21.1615 22.7478 21.1593C22.752 21.1572 22.7558 21.1556 22.7588 21.1546C22.7618 21.1536 22.7626 21.1537 22.7605 21.154C22.7583 21.1544 22.7516 21.1553 22.7395 21.1553V25.1553ZM10.2504 25.1553L22.7395 25.1553V21.1553L10.2504 21.1553L10.2504 25.1553ZM7.6441 18.1209C4.8285 20.5393 6.53875 25.1553 10.2504 25.1553V21.1553C10.2383 21.1553 10.2315 21.1544 10.2294 21.154C10.2272 21.1537 10.228 21.1536 10.231 21.1546C10.234 21.1556 10.2378 21.1572 10.242 21.1593C10.2461 21.1615 10.2497 21.1638 10.2526 21.1659C10.2585 21.1702 10.2597 21.1725 10.2581 21.1704C10.2564 21.168 10.2531 21.1628 10.2504 21.1553C10.2476 21.1477 10.2466 21.1417 10.2464 21.1387C10.2462 21.1361 10.2468 21.1387 10.2451 21.1457C10.2443 21.1493 10.2431 21.1533 10.2414 21.1577C10.2396 21.162 10.2377 21.1657 10.2361 21.1684C10.2345 21.1711 10.2338 21.1716 10.2353 21.1699C10.2367 21.1682 10.2412 21.1631 10.2504 21.1553L7.6441 18.1209ZM10.069 16.0381L7.6441 18.1209L10.2504 21.1553L12.6753 19.0724L10.069 16.0381ZM13.3722 17.5553V12.6219H9.37218V17.5553H13.3722ZM6.24089 9.78621L9.86568 13.9374L12.8787 11.3065L9.25389 7.15528L6.24089 9.78621Z" fill="white" mask="url(#path-1-inside-1_2740:493)"/>
<path d="M16.3008 23.1553L16.3008 29.1553" stroke="white" stroke-width="2" stroke-linecap="round"/>
</svg>
