<svg width="17" height="18" viewBox="0 0 17 18" fill="none" xmlns="http://www.w3.org/2000/svg">
<path d="M0 6.00781V13.0802C0 15.5556 3.78713 17.5005 8.5 17.5005C13.2129 17.5005 17 15.4672 17 13.0802V6.36143" fill="#DDDDDD"/>
<path d="M16.3 5.92027C16.3 6.74733 15.6414 7.66871 14.1874 8.42483C12.7679 9.16305 10.7582 9.64054 8.5 9.64054C6.24181 9.64054 4.23211 9.16305 2.81256 8.42483C1.35856 7.66871 0.7 6.74733 0.7 5.92027C0.7 5.09322 1.35856 4.17184 2.81256 3.41571C4.23211 2.67749 6.24181 2.2 8.5 2.2C10.7582 2.2 12.7679 2.67749 14.1874 3.41571C15.6414 4.17184 16.3 5.09322 16.3 5.92027Z" fill="white" stroke="#DDDDDD" stroke-width="1.4" stroke-miterlimit="10"/>
</svg>
