<svg width="33" height="32" viewBox="0 0 33 32" fill="none" xmlns="http://www.w3.org/2000/svg">
<circle cx="16.6074" cy="16" r="16" fill="white"/>
<path d="M16.7495 28.0777C16.6753 28.0777 16.5989 28.0646 16.5269 28.0405L7.55973 25.0217C7.27385 24.9255 7.08398 24.6586 7.08398 24.3567C7.08398 24.0548 7.27821 23.7879 7.56191 23.6939L10.1611 22.832C10.5277 22.7117 10.9227 22.9086 11.0427 23.2761C11.1627 23.6436 10.9642 24.0395 10.5997 24.1598L9.98866 24.3633L16.7451 26.6383L23.3205 24.3523L22.657 24.1183C22.2926 23.9892 22.1027 23.5911 22.2315 23.2258C22.3602 22.8604 22.7574 22.6701 23.1219 22.7992L25.6686 23.6983C25.948 23.7967 26.1357 24.0636 26.1357 24.3589C26.1357 24.6542 25.9458 24.9211 25.6665 25.0173L16.9786 28.0383C16.9044 28.0646 16.8281 28.0777 16.7495 28.0777Z" fill="black"/>
<path d="M16.6105 23.6561C11.231 23.6561 6.85547 19.2701 6.85547 13.8778C6.85547 8.48559 11.231 4.09961 16.6105 4.09961C16.7436 4.09961 16.8745 4.10398 17.0055 4.11055C17.3524 4.12367 17.6361 4.39274 17.6711 4.73837C17.8718 6.68745 19.4344 8.19465 21.3876 8.32153C21.7476 8.34559 22.0313 8.64091 22.0401 9.00185C22.0924 11.0581 23.6703 12.7338 25.7151 12.8978C26.0686 12.9263 26.3458 13.2172 26.3567 13.5738L26.3589 13.635C26.3611 13.716 26.3633 13.7991 26.3633 13.88C26.3654 19.2701 21.9899 23.6561 16.6105 23.6561ZM16.3835 5.50181C11.8792 5.62213 8.25216 9.33435 8.25216 13.8778C8.25216 18.4979 12.0014 22.256 16.6105 22.256C21.1104 22.256 24.792 18.6729 24.9622 14.2016C22.7188 13.7488 21.0035 11.9222 20.6936 9.64498C18.5505 9.26216 16.8527 7.63027 16.3835 5.50181Z" fill="black"/>
<path d="M14.0482 10.8273C14.6713 10.8273 15.1764 10.321 15.1764 9.69638C15.1764 9.07177 14.6713 8.56543 14.0482 8.56543C13.4251 8.56543 12.9199 9.07177 12.9199 9.69638C12.9199 10.321 13.4251 10.8273 14.0482 10.8273Z" fill="black"/>
<path d="M16.6029 14.9787C17.226 14.9787 17.7311 14.4724 17.7311 13.8477C17.7311 13.2231 17.226 12.7168 16.6029 12.7168C15.9797 12.7168 15.4746 13.2231 15.4746 13.8477C15.4746 14.4724 15.9797 14.9787 16.6029 14.9787Z" fill="black"/>
<path d="M16.7415 19.8351C17.3647 19.8351 17.8698 19.3288 17.8698 18.7042C17.8698 18.0796 17.3647 17.5732 16.7415 17.5732C16.1184 17.5732 15.6133 18.0796 15.6133 18.7042C15.6133 19.3288 16.1184 19.8351 16.7415 19.8351Z" fill="black"/>
<path d="M11.7923 15.6779C12.4154 15.6779 12.9206 15.1716 12.9206 14.547C12.9206 13.9224 12.4154 13.416 11.7923 13.416C11.1692 13.416 10.6641 13.9224 10.6641 14.547C10.6641 15.1716 11.1692 15.6779 11.7923 15.6779Z" fill="black"/>
<path d="M20.9994 17.0764C21.6225 17.0764 22.1276 16.57 22.1276 15.9454C22.1276 15.3208 21.6225 14.8145 20.9994 14.8145C20.3762 14.8145 19.8711 15.3208 19.8711 15.9454C19.8711 16.57 20.3762 17.0764 20.9994 17.0764Z" fill="black"/>
</svg>
