<svg width="24" height="24" viewBox="0 0 24 24" fill="none" xmlns="http://www.w3.org/2000/svg">
<rect width="24" height="24" fill="white"/>
<path d="M12.4939 22.1848C12.4302 22.1848 12.3647 22.1736 12.3028 22.1529L4.60517 19.5615C4.35976 19.4789 4.19678 19.2498 4.19678 18.9907C4.19678 18.7315 4.36351 18.5024 4.60705 18.4217L6.83823 17.6818C7.15296 17.5785 7.49204 17.7475 7.59507 18.063C7.69811 18.3785 7.52763 18.7184 7.21478 18.8216L6.69023 18.9963L12.4902 20.9492L18.1346 18.9869L17.5651 18.786C17.2523 18.6752 17.0893 18.3334 17.1998 18.0198C17.3104 17.7062 17.6513 17.5428 17.9642 17.6536L20.1504 18.4254C20.3902 18.5099 20.5513 18.739 20.5513 18.9925C20.5513 19.246 20.3883 19.4751 20.1485 19.5578L12.6906 22.151C12.6269 22.1736 12.5614 22.1848 12.4939 22.1848Z" fill="black"/>
<path d="M12.374 18.3878C7.75611 18.3878 4 14.6228 4 9.99389C4 5.36503 7.75611 1.59998 12.374 1.59998C12.4882 1.59998 12.6006 1.60373 12.713 1.60936C13.0109 1.62063 13.2544 1.85161 13.2844 2.1483C13.4568 3.82145 14.7981 5.11528 16.4748 5.2242C16.7839 5.24485 17.0274 5.49836 17.0349 5.8082C17.0799 7.57337 18.4343 9.01179 20.1897 9.15262C20.4931 9.17704 20.7311 9.42679 20.7404 9.73288L20.7423 9.78545C20.7442 9.85493 20.7461 9.92629 20.7461 9.99577C20.7479 14.6228 16.9918 18.3878 12.374 18.3878ZM12.1791 2.80367C8.3125 2.90695 5.19896 6.09363 5.19896 9.99389C5.19896 13.9599 8.41741 17.186 12.374 17.186C16.2369 17.186 19.3972 14.1101 19.5433 10.2718C17.6175 9.8831 16.1451 8.31511 15.879 6.36028C14.0394 6.03166 12.5819 4.6308 12.1791 2.80367Z" fill="black"/>
<path d="M10.1746 7.37589C10.7095 7.37589 11.1431 6.94123 11.1431 6.40504C11.1431 5.86886 10.7095 5.4342 10.1746 5.4342C9.63968 5.4342 9.20605 5.86886 9.20605 6.40504C9.20605 6.94123 9.63968 7.37589 10.1746 7.37589Z" fill="black"/>
<path d="M12.3665 10.9404C12.9014 10.9404 13.335 10.5057 13.335 9.96956C13.335 9.43338 12.9014 8.99872 12.3665 8.99872C11.8316 8.99872 11.3979 9.43338 11.3979 9.96956C11.3979 10.5057 11.8316 10.9404 12.3665 10.9404Z" fill="black"/>
<path d="M12.4861 15.1092C13.021 15.1092 13.4546 14.6746 13.4546 14.1384C13.4546 13.6022 13.021 13.1675 12.4861 13.1675C11.9512 13.1675 11.5176 13.6022 11.5176 14.1384C11.5176 14.6746 11.9512 15.1092 12.4861 15.1092Z" fill="black"/>
<path d="M8.23758 11.5396C8.77248 11.5396 9.20611 11.1049 9.20611 10.5687C9.20611 10.0326 8.77248 9.5979 8.23758 9.5979C7.70267 9.5979 7.26904 10.0326 7.26904 10.5687C7.26904 11.1049 7.70267 11.5396 8.23758 11.5396Z" fill="black"/>
<path d="M16.1419 12.7408C16.6768 12.7408 17.1104 12.3061 17.1104 11.7699C17.1104 11.2337 16.6768 10.7991 16.1419 10.7991C15.607 10.7991 15.1733 11.2337 15.1733 11.7699C15.1733 12.3061 15.607 12.7408 16.1419 12.7408Z" fill="black"/>
</svg>