<svg width="22" height="22" viewBox="0 0 22 22" fill="none" xmlns="http://www.w3.org/2000/svg">
<circle cx="11" cy="11" r="11" fill="white"/>
<path d="M11.0962 19.3032C11.0452 19.3032 10.9927 19.2942 10.9432 19.2777L4.77825 17.2022C4.5817 17.1361 4.45117 16.9526 4.45117 16.745C4.45117 16.5375 4.5847 16.354 4.77975 16.2894L6.56666 15.6968C6.81872 15.6141 7.09028 15.7495 7.1728 16.0021C7.25532 16.2548 7.11879 16.527 6.86823 16.6097L6.44813 16.7496L11.0932 18.3136L15.6138 16.742L15.1576 16.5811C14.9071 16.4924 14.7766 16.2187 14.8651 15.9675C14.9536 15.7164 15.2267 15.5855 15.4772 15.6743L17.2281 16.2924C17.4202 16.36 17.5492 16.5435 17.5492 16.7466C17.5492 16.9496 17.4187 17.1331 17.2266 17.1992L11.2537 19.2761C11.2027 19.2942 11.1502 19.3032 11.0962 19.3032Z" fill="#C2C2C2"/>
<path d="M11.0005 16.2634C7.30214 16.2634 4.29395 13.2481 4.29395 9.54089C4.29395 5.83372 7.30214 2.81836 11.0005 2.81836C11.092 2.81836 11.182 2.82137 11.2721 2.82588C11.5106 2.8349 11.7057 3.01988 11.7297 3.2575C11.8677 4.5975 12.9419 5.6337 14.2848 5.72093C14.5323 5.73747 14.7274 5.9405 14.7334 6.18865C14.7694 7.60233 15.8541 8.75434 17.2599 8.86713C17.503 8.88668 17.6935 9.08671 17.701 9.33185L17.7025 9.37395C17.704 9.4296 17.7055 9.48675 17.7055 9.54239C17.707 13.2481 14.6989 16.2634 11.0005 16.2634ZM10.8445 3.78237C7.74774 3.86509 5.25417 6.41724 5.25417 9.54089C5.25417 12.7172 7.83176 15.3009 11.0005 15.3009C14.0942 15.3009 16.6253 12.8375 16.7423 9.76347C15.2 9.45216 14.0207 8.19638 13.8076 6.6308C12.3343 6.36762 11.167 5.24569 10.8445 3.78237Z" fill="#C2C2C2"/>
<path d="M9.23662 7.44373C9.66501 7.44373 10.0123 7.09562 10.0123 6.6662C10.0123 6.23678 9.66501 5.88867 9.23662 5.88867C8.80822 5.88867 8.46094 6.23678 8.46094 6.6662C8.46094 7.09562 8.80822 7.44373 9.23662 7.44373Z" fill="#C2C2C2"/>
<path d="M10.9935 10.2977C11.4218 10.2977 11.7691 9.94962 11.7691 9.5202C11.7691 9.09079 11.4218 8.74268 10.9935 8.74268C10.5651 8.74268 10.2178 9.09079 10.2178 9.5202C10.2178 9.94962 10.5651 10.2977 10.9935 10.2977Z" fill="#C2C2C2"/>
<path d="M11.0901 13.6366C11.5185 13.6366 11.8658 13.2885 11.8658 12.8591C11.8658 12.4297 11.5185 12.0815 11.0901 12.0815C10.6617 12.0815 10.3145 12.4297 10.3145 12.8591C10.3145 13.2885 10.6617 13.6366 11.0901 13.6366Z" fill="#C2C2C2"/>
<path d="M7.68779 10.7787C8.11618 10.7787 8.46347 10.4306 8.46347 10.0012C8.46347 9.57174 8.11618 9.22363 7.68779 9.22363C7.25939 9.22363 6.91211 9.57174 6.91211 10.0012C6.91211 10.4306 7.25939 10.7787 7.68779 10.7787Z" fill="#C2C2C2"/>
<path d="M14.0169 11.7401C14.4453 11.7401 14.7926 11.392 14.7926 10.9626C14.7926 10.5332 14.4453 10.1851 14.0169 10.1851C13.5885 10.1851 13.2412 10.5332 13.2412 10.9626C13.2412 11.392 13.5885 11.7401 14.0169 11.7401Z" fill="#C2C2C2"/>
</svg>
