<svg width="32" height="32" viewBox="0 0 32 32" fill="none" xmlns="http://www.w3.org/2000/svg">
<path d="M19.1331 28.0333H12.9505C10.8558 28.0269 9.1102 26.421 8.91977 24.3326L7.70102 9.70764L9.71323 9.53625L10.9447 24.1612C11.0272 25.2086 11.9095 26.0147 12.9569 26.0147H19.1331C20.1805 26.0084 21.0501 25.2022 21.1453 24.1612L22.3514 9.53625L24.3636 9.70764L23.1322 24.3326C22.9544 26.4146 21.2215 28.0142 19.1331 28.0333Z" fill="white" fill-opacity="0.92"/>
<path d="M26.2678 10.635H5.80937C5.25078 10.635 4.80009 10.1843 4.80009 9.62573C4.80009 9.06714 5.25078 8.61646 5.80937 8.61646H26.2678C26.8264 8.61646 27.2771 9.06714 27.2771 9.62573C27.2771 10.1843 26.8264 10.635 26.2678 10.635Z" fill="white" fill-opacity="0.92"/>
<path d="M21.4055 10.6323H19.3933V9.62305C19.3933 7.77589 17.8953 6.27784 16.0481 6.27784C14.2073 6.30323 12.722 7.78858 12.7029 9.62305V10.6323H10.6907V9.62305C10.6907 6.6587 13.0965 4.25929 16.0545 4.26564C19.0125 4.26564 21.4119 6.66505 21.4119 9.62305V10.6323H21.4055Z" fill="white" fill-opacity="0.92"/>
<path d="M17.9206 22.5437H17.8508C17.2985 22.5056 16.8732 22.0295 16.9113 21.4709L17.3112 15.6691C17.3493 15.1106 17.8317 14.6916 18.384 14.7297C18.9426 14.7678 19.3615 15.2502 19.3234 15.8024L18.9235 21.6042C18.8918 22.1374 18.4538 22.5437 17.9206 22.5437Z" fill="white" fill-opacity="0.92"/>
<path d="M14.1627 22.5464C13.6295 22.5464 13.1915 22.1338 13.1598 21.6006L12.7599 15.7989C12.7218 15.2403 13.1471 14.7642 13.6993 14.7261C14.2579 14.688 14.734 15.1133 14.7721 15.6656L15.172 21.4673C15.2101 22.0196 14.7911 22.502 14.2325 22.5401L14.1627 22.5464Z" fill="white" fill-opacity="0.92"/>
</svg>
