<svg width="33" height="33" viewBox="0 0 33 33" fill="none" xmlns="http://www.w3.org/2000/svg">
<mask id="icn_cookiehover_pin" fill="white">
<path fill-rule="evenodd" clip-rule="evenodd" d="M7.74739 8.47074C6.61783 7.17715 7.53654 5.15527 9.25389 5.15527H23.736C25.4533 5.15527 26.372 7.17715 25.2425 8.47074L21.6177 12.622V17.5553L24.0426 19.6381C25.4504 20.8473 24.5953 23.1553 22.7395 23.1553L10.2504 23.1553C8.39455 23.1553 7.53943 20.8473 8.94723 19.6381L11.3722 17.5553V12.6219L7.74739 8.47074Z"/>
</mask>
<path fill-rule="evenodd" clip-rule="evenodd" d="M7.49739 8.47074C6.36783 7.17715 7.28654 5.15527 9.00389 5.15527H23.486C25.2033 5.15527 26.122 7.17715 24.9925 8.47074L21.3677 12.622V17.5553L23.7926 19.6381C25.2004 20.8473 24.3453 23.1553 22.4895 23.1553L10.0004 23.1553C8.14455 23.1553 7.28943 20.8473 8.69723 19.6381L11.1222 17.5553V12.6219L7.49739 8.47074Z"  stroke="white" stroke-width="2"/>
<path d="M16.3008 23.1553L16.3008 29.1553" stroke="white" stroke-width="2" stroke-linecap="round"/>
</svg>
