<svg width="32" height="33" viewBox="0 0 32 33" fill="none" xmlns="http://www.w3.org/2000/svg">
<mask id="path-1-inside-1_2740:653" fill="white">
<path fill-rule="evenodd" clip-rule="evenodd" d="M7.49739 8.47074C6.36783 7.17715 7.28654 5.15527 9.00389 5.15527H23.486C25.2033 5.15527 26.122 7.17715 24.9925 8.47074L21.3677 12.622V17.5553L23.7926 19.6381C25.2004 20.8473 24.3453 23.1553 22.4895 23.1553L10.0004 23.1553C8.14455 23.1553 7.28943 20.8473 8.69723 19.6381L11.1222 17.5553V12.6219L7.49739 8.47074Z"/>
</mask>
<path fill-rule="evenodd" clip-rule="evenodd" d="M7.49739 8.47074C6.36783 7.17715 7.28654 5.15527 9.00389 5.15527H23.486C25.2033 5.15527 26.122 7.17715 24.9925 8.47074L21.3677 12.622V17.5553L23.7926 19.6381C25.2004 20.8473 24.3453 23.1553 22.4895 23.1553L10.0004 23.1553C8.14455 23.1553 7.28943 20.8473 8.69723 19.6381L11.1222 17.5553V12.6219L7.49739 8.47074Z" fill="white"/>
<path d="M7.49739 8.47074L5.99089 9.78621V9.78621L7.49739 8.47074ZM24.9925 8.47074L26.499 9.78621V9.78621L24.9925 8.47074ZM21.3677 12.622L19.8612 11.3065L19.3677 11.8717V12.622H21.3677ZM21.3677 17.5553H19.3677V18.4739L20.0645 19.0725L21.3677 17.5553ZM23.7926 19.6381L22.4895 21.1553H22.4895L23.7926 19.6381ZM22.4895 23.1553V25.1553V23.1553ZM10.0004 23.1553L10.0004 21.1553H10.0004V23.1553ZM8.69723 19.6381L10.0004 21.1553H10.0004L8.69723 19.6381ZM11.1222 17.5553L12.4253 19.0724L13.1222 18.4739V17.5553H11.1222ZM11.1222 12.6219H13.1222V11.8716L12.6287 11.3065L11.1222 12.6219ZM9.00389 3.15527C5.56918 3.15527 3.73177 7.19903 5.99089 9.78621L9.00389 7.15528L9.00389 7.15527V3.15527ZM23.486 3.15527H9.00389V7.15527H23.486V3.15527ZM26.499 9.78621C28.7581 7.19902 26.9207 3.15527 23.486 3.15527V7.15527L23.486 7.15527L26.499 9.78621ZM22.8742 13.9374L26.499 9.78621L23.486 7.15527L19.8612 11.3065L22.8742 13.9374ZM19.3677 12.622V17.5553H23.3677V12.622H19.3677ZM25.0957 18.1209L22.6708 16.0381L20.0645 19.0725L22.4895 21.1553L25.0957 18.1209ZM22.4895 25.1553C26.2011 25.1553 27.9113 20.5393 25.0957 18.1209L22.4895 21.1553C22.4986 21.1632 22.5031 21.1682 22.5046 21.1699C22.506 21.1716 22.5054 21.1711 22.5037 21.1684C22.5021 21.1657 22.5002 21.162 22.4985 21.1577C22.4967 21.1533 22.4955 21.1493 22.4947 21.1457C22.4931 21.1387 22.4936 21.1361 22.4934 21.1387C22.4932 21.1417 22.4922 21.1477 22.4895 21.1553C22.4867 21.1628 22.4835 21.168 22.4817 21.1704C22.4801 21.1725 22.4814 21.1702 22.4872 21.1659C22.4901 21.1638 22.4937 21.1615 22.4978 21.1593C22.502 21.1572 22.5058 21.1556 22.5088 21.1546C22.5118 21.1536 22.5126 21.1537 22.5105 21.154C22.5083 21.1544 22.5016 21.1553 22.4895 21.1553V25.1553ZM10.0004 25.1553L22.4895 25.1553V21.1553L10.0004 21.1553L10.0004 25.1553ZM7.3941 18.1209C4.5785 20.5393 6.28875 25.1553 10.0004 25.1553V21.1553C9.98827 21.1553 9.98153 21.1544 9.97937 21.154C9.9772 21.1537 9.97799 21.1536 9.98101 21.1546C9.98399 21.1556 9.98781 21.1572 9.99198 21.1593C9.99611 21.1615 9.9997 21.1638 10.0026 21.1659C10.0085 21.1702 10.0097 21.1725 10.0081 21.1704C10.0064 21.168 10.0031 21.1628 10.0004 21.1553C9.99757 21.1477 9.99661 21.1417 9.9964 21.1387C9.99621 21.1361 9.99677 21.1387 9.99514 21.1457C9.99433 21.1493 9.9931 21.1533 9.99136 21.1577C9.98961 21.162 9.98772 21.1657 9.9861 21.1684C9.98446 21.1711 9.98384 21.1716 9.98526 21.1699C9.98667 21.1682 9.99119 21.1631 10.0004 21.1553L7.3941 18.1209ZM9.81905 16.0381L7.3941 18.1209L10.0004 21.1553L12.4253 19.0724L9.81905 16.0381ZM13.1222 17.5553V12.6219H9.12218V17.5553H13.1222ZM5.99089 9.78621L9.61568 13.9374L12.6287 11.3065L9.00389 7.15528L5.99089 9.78621Z" fill="white" mask="url(#path-1-inside-1_2740:653)"/>
<path d="M16.0508 23.1553L16.0508 29.1553" stroke="white" stroke-width="2" stroke-linecap="round"/>
</svg>
