<svg width="13" height="13" viewBox="0 0 13 13" fill="none" xmlns="http://www.w3.org/2000/svg">
<path d="M5.252 5.759C5.2845 5.5445 5.356 5.356 5.447 5.1935C5.538 5.031 5.668 4.8945 5.8305 4.7905C5.9865 4.693 6.1815 4.6475 6.422 4.641C6.5715 4.6475 6.708 4.6735 6.8315 4.7255C6.9615 4.784 7.0785 4.862 7.1695 4.9595C7.2605 5.057 7.332 5.174 7.3905 5.304C7.449 5.434 7.475 5.577 7.4815 5.72H8.645C8.632 5.4145 8.5735 5.135 8.463 4.8815C8.3525 4.628 8.203 4.407 8.008 4.225C7.813 4.043 7.579 3.9 7.306 3.796C7.033 3.692 6.734 3.6465 6.4025 3.6465C5.98 3.6465 5.6095 3.718 5.2975 3.8675C4.9855 4.017 4.7255 4.212 4.5175 4.4655C4.3095 4.719 4.1535 5.0115 4.056 5.3495C3.9585 5.6875 3.9 6.0385 3.9 6.4155V6.591C3.9 6.968 3.952 7.319 4.0495 7.657C4.147 7.995 4.303 8.2875 4.511 8.5345C4.719 8.7815 4.979 8.983 5.291 9.126C5.603 9.269 5.9735 9.347 6.396 9.347C6.7015 9.347 6.9875 9.295 7.254 9.1975C7.5205 9.1 7.7545 8.9635 7.956 8.788C8.1575 8.6125 8.32 8.411 8.437 8.177C8.554 7.943 8.6255 7.696 8.632 7.4295H7.4685C7.462 7.566 7.4295 7.6895 7.371 7.8065C7.3125 7.9235 7.2345 8.021 7.137 8.1055C7.0395 8.19 6.929 8.255 6.799 8.3005C6.6755 8.346 6.5455 8.359 6.409 8.3655C6.175 8.359 5.98 8.3135 5.8305 8.216C5.668 8.112 5.538 7.9755 5.447 7.813C5.356 7.6505 5.2845 7.4555 5.252 7.241C5.2195 7.0265 5.2 6.8055 5.2 6.591V6.4155C5.2 6.188 5.2195 5.9735 5.252 5.759ZM6.5 0C2.912 0 0 2.912 0 6.5C0 10.088 2.912 13 6.5 13C10.088 13 13 10.088 13 6.5C13 2.912 10.088 0 6.5 0ZM6.5 11.7C3.6335 11.7 1.3 9.3665 1.3 6.5C1.3 3.6335 3.6335 1.3 6.5 1.3C9.3665 1.3 11.7 3.6335 11.7 6.5C11.7 9.3665 9.3665 11.7 6.5 11.7Z" fill="#555555"/>
</svg>
