<svg width="319" height="209" viewBox="0 0 319 209" fill="none" xmlns="http://www.w3.org/2000/svg">
<g filter="url(#filter0_d_3521_814)">
<mask id="path-1-inside-1_3521_814" fill="white">
<path fill-rule="evenodd" clip-rule="evenodd" d="M30.5 9C20.2827 9 12 17.2827 12 27.5V164.5C12 174.717 20.2827 183 30.5 183H251.647C251.66 183.021 251.673 183.042 251.687 183.062L258.337 193.012C259.129 194.197 260.871 194.197 261.663 193.012L268.313 183.062C268.327 183.042 268.34 183.021 268.353 183H288.5C298.717 183 307 174.717 307 164.5V27.5C307 17.2827 298.717 9 288.5 9H30.5Z"/>
</mask>
<path fill-rule="evenodd" clip-rule="evenodd" d="M30.5 9C20.2827 9 12 17.2827 12 27.5V164.5C12 174.717 20.2827 183 30.5 183H251.647C251.66 183.021 251.673 183.042 251.687 183.062L258.337 193.012C259.129 194.197 260.871 194.197 261.663 193.012L268.313 183.062C268.327 183.042 268.34 183.021 268.353 183H288.5C298.717 183 307 174.717 307 164.5V27.5C307 17.2827 298.717 9 288.5 9H30.5Z" fill="white"/>
<path d="M251.647 183L252.497 182.474L252.204 182H251.647V183ZM251.687 183.062L252.519 182.507L252.519 182.507L251.687 183.062ZM258.337 193.012L257.506 193.568L258.337 193.012ZM261.663 193.012L262.494 193.568L261.663 193.012ZM268.313 183.062L267.481 182.507L267.481 182.507L268.313 183.062ZM268.353 183V182H267.796L267.503 182.473L268.353 183ZM13 27.5C13 17.835 20.835 10 30.5 10V8C19.7304 8 11 16.7304 11 27.5H13ZM13 164.5V27.5H11V164.5H13ZM30.5 182C20.835 182 13 174.165 13 164.5H11C11 175.27 19.7304 184 30.5 184V182ZM251.647 182H30.5V184H251.647V182ZM252.519 182.507C252.511 182.495 252.504 182.484 252.497 182.474L250.797 183.526C250.816 183.557 250.836 183.588 250.856 183.618L252.519 182.507ZM259.168 192.456L252.519 182.507L250.856 183.618L257.506 193.568L259.168 192.456ZM260.831 192.456C260.435 193.049 259.564 193.049 259.168 192.456L257.506 193.568C258.693 195.345 261.306 195.345 262.494 193.568L260.831 192.456ZM267.481 182.507L260.831 192.456L262.494 193.568L269.144 183.618L267.481 182.507ZM267.503 182.473C267.496 182.485 267.489 182.496 267.481 182.507L269.144 183.618C269.164 183.588 269.184 183.557 269.203 183.527L267.503 182.473ZM288.5 182H268.353V184H288.5V182ZM306 164.5C306 174.165 298.165 182 288.5 182V184C299.27 184 308 175.27 308 164.5H306ZM306 27.5V164.5H308V27.5H306ZM288.5 10C298.165 10 306 17.835 306 27.5H308C308 16.7304 299.27 8 288.5 8V10ZM30.5 10H288.5V8H30.5V10Z" fill="#F5F3F2" mask="url(#path-1-inside-1_3521_814)"/>
</g>
<path d="M36.121 58.182C36.953 58.182 37.811 57.909 38.5 57.298L37.746 56.037C37.343 56.388 36.849 56.622 36.329 56.622C35.068 56.622 34.522 55.478 34.522 54.373C34.522 52.969 35.276 52.098 36.381 52.098C36.797 52.098 37.135 52.267 37.499 52.579L38.409 51.344C37.876 50.889 37.187 50.538 36.29 50.538C34.314 50.538 32.572 51.942 32.572 54.373C32.572 56.765 34.106 58.182 36.121 58.182ZM42.2875 58.182C42.9245 58.182 43.4185 58.052 43.8215 57.909L43.5095 56.518C43.3145 56.609 43.0415 56.674 42.7945 56.674C42.1315 56.674 41.8065 56.271 41.8065 55.452V52.228H43.6005V50.72H41.8065V48.77H40.2075L39.9865 50.72L38.8685 50.811V52.228H39.8955V55.452C39.8955 57.09 40.5585 58.182 42.2875 58.182ZM44.8215 58H46.7195V53.658C47.1355 52.605 47.8245 52.228 48.3965 52.228C48.6955 52.228 48.9035 52.254 49.1505 52.345L49.4885 50.694C49.2675 50.603 49.0335 50.538 48.6305 50.538C47.8505 50.538 47.0965 51.058 46.5635 52.007H46.5115L46.3815 50.72H44.8215V58ZM52.1216 58V47.626H50.2236V58H52.1216ZM58.8425 56.583H60.2595V53.814H62.8855V52.462H60.2595V49.693H58.8425V52.462H56.2165V53.814H58.8425V56.583ZM68.91 58.182C70.808 58.182 71.809 57.155 71.809 55.881C71.809 54.516 70.743 54.061 69.781 53.684C69.014 53.411 68.299 53.19 68.299 52.67C68.299 52.254 68.598 51.968 69.261 51.968C69.82 51.968 70.314 52.228 70.834 52.592L71.692 51.435C71.081 50.98 70.301 50.538 69.209 50.538C67.584 50.538 66.505 51.461 66.505 52.774C66.505 53.983 67.571 54.555 68.494 54.893C69.261 55.205 70.015 55.439 70.015 55.985C70.015 56.44 69.69 56.752 68.962 56.752C68.286 56.752 67.675 56.466 67.012 55.959L66.141 57.155C66.869 57.766 67.922 58.182 68.91 58.182ZM73.0066 58H74.9046V52.995C75.4636 52.462 75.8146 52.176 76.4256 52.176C77.1536 52.176 77.4526 52.566 77.4526 53.697V58H79.3636V53.463C79.3636 51.63 78.6876 50.538 77.1146 50.538C76.1266 50.538 75.4116 51.045 74.8266 51.604L74.9046 50.239V47.626H73.0066V58ZM82.791 47.704H80.893V49.55H82.791V47.704ZM82.778 58V50.72H80.88V58H82.778ZM88.6328 47.704C88.3078 47.561 87.8138 47.444 87.2548 47.444C85.4218 47.444 84.7198 48.614 84.7198 50.135V50.733L83.7448 50.811V52.228H84.7198V58H86.6308V52.228H87.9958V50.72H86.6308V50.096C86.6308 49.264 86.9428 48.952 87.5148 48.952C87.7618 48.952 88.0348 49.017 88.2818 49.108L88.6328 47.704ZM91.6367 58.182C92.2737 58.182 92.7677 58.052 93.1707 57.909L92.8587 56.518C92.6637 56.609 92.3907 56.674 92.1437 56.674C91.4807 56.674 91.1557 56.271 91.1557 55.452V52.228H92.9497V50.72H91.1557V48.77H89.5567L89.3357 50.72L88.2177 50.811V52.228H89.2447V55.452C89.2447 57.09 89.9077 58.182 91.6367 58.182ZM98.949 56.583H100.366V53.814H102.992V52.462H100.366V49.693H98.949V52.462H96.323V53.814H98.949V56.583ZM109.017 58.182C110.915 58.182 111.916 57.155 111.916 55.881C111.916 54.516 110.85 54.061 109.888 53.684C109.121 53.411 108.406 53.19 108.406 52.67C108.406 52.254 108.705 51.968 109.368 51.968C109.927 51.968 110.421 52.228 110.941 52.592L111.799 51.435C111.188 50.98 110.408 50.538 109.316 50.538C107.691 50.538 106.612 51.461 106.612 52.774C106.612 53.983 107.678 54.555 108.601 54.893C109.368 55.205 110.122 55.439 110.122 55.985C110.122 56.44 109.797 56.752 109.069 56.752C108.393 56.752 107.782 56.466 107.119 55.959L106.248 57.155C106.976 57.766 108.029 58.182 109.017 58.182ZM130.9 48.076H132.136V54.22H130.9V51.796H128.752V50.776H130.9V48.076ZM123.808 48.736H128.728C128.728 49.44 128.612 50.088 128.38 50.68C128.156 51.272 127.828 51.808 127.396 52.288C126.972 52.76 126.452 53.172 125.836 53.524C125.22 53.868 124.52 54.152 123.736 54.376L123.232 53.392C124.512 53.056 125.496 52.576 126.184 51.952C126.88 51.328 127.284 50.592 127.396 49.744H123.808V48.736ZM125.08 58.792V54.664H132.136V58.792H125.08ZM126.292 55.648V57.796H130.924V55.648H126.292ZM141.951 48.088H143.127V54.652H141.951V51.832H140.811V54.592H139.647V48.268H140.811V50.824H141.951V48.088ZM139.383 53.092L138.723 54.028C138.243 53.828 137.835 53.556 137.499 53.212C137.163 52.86 136.895 52.464 136.695 52.024C136.495 52.528 136.219 52.98 135.867 53.38C135.523 53.772 135.087 54.084 134.559 54.316L133.899 53.368C134.259 53.2 134.575 52.996 134.847 52.756C135.127 52.508 135.355 52.24 135.531 51.952C135.715 51.656 135.851 51.352 135.939 51.04C136.035 50.72 136.083 50.404 136.083 50.092V48.712H137.283V50.092C137.283 50.396 137.327 50.696 137.415 50.992C137.503 51.288 137.631 51.568 137.799 51.832C137.975 52.096 138.195 52.336 138.459 52.552C138.723 52.768 139.031 52.948 139.383 53.092ZM135.783 56.188V55.192H143.127V58.936H141.891V56.188H135.783ZM151.154 53.26L150.59 54.22C149.966 54.044 149.434 53.784 148.994 53.44C148.562 53.088 148.226 52.672 147.986 52.192C147.746 52.728 147.402 53.196 146.954 53.596C146.514 53.988 145.97 54.288 145.322 54.496L144.734 53.524C145.15 53.404 145.518 53.236 145.838 53.02C146.166 52.804 146.438 52.56 146.654 52.288C146.878 52.008 147.046 51.708 147.158 51.388C147.278 51.068 147.338 50.74 147.338 50.404V50.296H145.058V49.312H147.338V48.028H148.586V49.312H150.854V50.296H148.574V50.404C148.574 51.028 148.798 51.6 149.246 52.12C149.694 52.64 150.33 53.02 151.154 53.26ZM153.218 50.776H154.754V51.796H153.218V54.676H151.982V48.076H153.218V50.776ZM149.726 54.916C150.854 54.916 151.738 55.096 152.378 55.456C153.018 55.808 153.338 56.296 153.338 56.92C153.338 57.544 153.018 58.032 152.378 58.384C151.738 58.744 150.854 58.924 149.726 58.924C148.598 58.924 147.714 58.744 147.074 58.384C146.434 58.032 146.114 57.544 146.114 56.92C146.114 56.296 146.434 55.808 147.074 55.456C147.714 55.096 148.598 54.916 149.726 54.916ZM149.726 57.964C150.502 57.964 151.094 57.876 151.502 57.7C151.91 57.516 152.114 57.256 152.114 56.92C152.114 56.584 151.91 56.328 151.502 56.152C151.094 55.968 150.502 55.876 149.726 55.876C148.95 55.876 148.358 55.968 147.95 56.152C147.542 56.328 147.338 56.584 147.338 56.92C147.338 57.256 147.542 57.516 147.95 57.7C148.358 57.876 148.95 57.964 149.726 57.964ZM165.728 52.492H163.196C162.948 52.772 162.632 52.996 162.248 53.164C161.864 53.324 161.44 53.404 160.976 53.404C160.568 53.404 160.192 53.344 159.848 53.224C159.504 53.096 159.204 52.924 158.948 52.708C158.7 52.484 158.504 52.22 158.36 51.916C158.216 51.604 158.144 51.268 158.144 50.908C158.144 50.54 158.216 50.204 158.36 49.9C158.504 49.596 158.7 49.336 158.948 49.12C159.204 48.896 159.504 48.724 159.848 48.604C160.192 48.476 160.568 48.412 160.976 48.412C161.432 48.412 161.848 48.488 162.224 48.64C162.6 48.792 162.916 49.008 163.172 49.288H165.728V48.076H166.976V53.584H165.728V52.492ZM159.32 50.908C159.32 51.356 159.476 51.716 159.788 51.988C160.1 52.252 160.496 52.384 160.976 52.384C161.456 52.384 161.848 52.252 162.152 51.988C162.456 51.724 162.608 51.364 162.608 50.908C162.608 50.452 162.456 50.092 162.152 49.828C161.848 49.564 161.456 49.432 160.976 49.432C160.496 49.432 160.1 49.568 159.788 49.84C159.476 50.104 159.32 50.46 159.32 50.908ZM165.728 50.26H163.7C163.756 50.404 163.784 50.62 163.784 50.908C163.784 51.124 163.76 51.328 163.712 51.52H165.728V50.26ZM161.156 57.82H167.336V58.792H159.932V55.948H165.752V55.06H159.92V54.1H166.976V56.86H161.156V57.82ZM176.503 48.088H177.739V58.924H176.503V48.088ZM169.411 49.228H174.547C174.547 50.036 174.459 50.812 174.283 51.556C174.115 52.292 173.831 52.988 173.431 53.644C173.039 54.3 172.523 54.912 171.883 55.48C171.243 56.04 170.459 56.544 169.531 56.992L168.871 56.008C170.295 55.32 171.359 54.5 172.063 53.548C172.767 52.588 173.171 51.484 173.275 50.236H169.411V49.228ZM36.121 85.182C36.953 85.182 37.811 84.909 38.5 84.298L37.746 83.037C37.343 83.388 36.849 83.622 36.329 83.622C35.068 83.622 34.522 82.478 34.522 81.373C34.522 79.969 35.276 79.098 36.381 79.098C36.797 79.098 37.135 79.267 37.499 79.579L38.409 78.344C37.876 77.889 37.187 77.538 36.29 77.538C34.314 77.538 32.572 78.942 32.572 81.373C32.572 83.765 34.106 85.182 36.121 85.182ZM42.2875 85.182C42.9245 85.182 43.4185 85.052 43.8215 84.909L43.5095 83.518C43.3145 83.609 43.0415 83.674 42.7945 83.674C42.1315 83.674 41.8065 83.271 41.8065 82.452V79.228H43.6005V77.72H41.8065V75.77H40.2075L39.9865 77.72L38.8685 77.811V79.228H39.8955V82.452C39.8955 84.09 40.5585 85.182 42.2875 85.182ZM44.8215 85H46.7195V80.658C47.1355 79.605 47.8245 79.228 48.3965 79.228C48.6955 79.228 48.9035 79.254 49.1505 79.345L49.4885 77.694C49.2675 77.603 49.0335 77.538 48.6305 77.538C47.8505 77.538 47.0965 78.058 46.5635 79.007H46.5115L46.3815 77.72H44.8215V85ZM52.1216 85V74.626H50.2236V85H52.1216ZM58.8425 83.583H60.2595V80.814H62.8855V79.462H60.2595V76.693H58.8425V79.462H56.2165V80.814H58.8425V83.583ZM68.91 85.182C70.808 85.182 71.809 84.155 71.809 82.881C71.809 81.516 70.743 81.061 69.781 80.684C69.014 80.411 68.299 80.19 68.299 79.67C68.299 79.254 68.598 78.968 69.261 78.968C69.82 78.968 70.314 79.228 70.834 79.592L71.692 78.435C71.081 77.98 70.301 77.538 69.209 77.538C67.584 77.538 66.505 78.461 66.505 79.774C66.505 80.983 67.571 81.555 68.494 81.893C69.261 82.205 70.015 82.439 70.015 82.985C70.015 83.44 69.69 83.752 68.962 83.752C68.286 83.752 67.675 83.466 67.012 82.959L66.141 84.155C66.869 84.766 67.922 85.182 68.91 85.182ZM73.0066 85H74.9046V79.995C75.4636 79.462 75.8146 79.176 76.4256 79.176C77.1536 79.176 77.4526 79.566 77.4526 80.697V85H79.3636V80.463C79.3636 78.63 78.6876 77.538 77.1146 77.538C76.1266 77.538 75.4116 78.045 74.8266 78.604L74.9046 77.239V74.626H73.0066V85ZM82.791 74.704H80.893V76.55H82.791V74.704ZM82.778 85V77.72H80.88V85H82.778ZM88.6328 74.704C88.3078 74.561 87.8138 74.444 87.2548 74.444C85.4218 74.444 84.7198 75.614 84.7198 77.135V77.733L83.7448 77.811V79.228H84.7198V85H86.6308V79.228H87.9958V77.72H86.6308V77.096C86.6308 76.264 86.9428 75.952 87.5148 75.952C87.7618 75.952 88.0348 76.017 88.2818 76.108L88.6328 74.704ZM91.6367 85.182C92.2737 85.182 92.7677 85.052 93.1707 84.909L92.8587 83.518C92.6637 83.609 92.3907 83.674 92.1437 83.674C91.4807 83.674 91.1557 83.271 91.1557 82.452V79.228H92.9497V77.72H91.1557V75.77H89.5567L89.3357 77.72L88.2177 77.811V79.228H89.2447V82.452C89.2447 84.09 89.9077 85.182 91.6367 85.182ZM98.949 83.583H100.366V80.814H102.992V79.462H100.366V76.693H98.949V79.462H96.323V80.814H98.949V83.583ZM111.175 74.704C110.85 74.561 110.356 74.444 109.797 74.444C107.964 74.444 107.262 75.614 107.262 77.135V77.733L106.287 77.811V79.228H107.262V85H109.173V79.228H110.538V77.72H109.173V77.096C109.173 76.264 109.485 75.952 110.057 75.952C110.304 75.952 110.577 76.017 110.824 76.108L111.175 74.704ZM132.09 75.352V79.456H124.818V75.352H126.042V76.456H130.866V75.352H132.09ZM130.866 78.472V77.404H126.042V78.472H130.866ZM133.362 81.328H129.054V82.432H132.15V85.924H130.914V83.416H124.638V82.432H127.818V81.328H123.534V80.332H133.362V81.328ZM144.437 79.324V80.344H142.745V85.936H141.509V75.088H142.745V79.324H144.437ZM134.729 83.224V76.144H139.805V83.224H134.729ZM135.953 77.128V82.24H138.581V77.128H135.953ZM145.996 79.36L152.608 79.108C152.624 78.82 152.632 78.54 152.632 78.268C152.632 77.988 152.632 77.708 152.632 77.428V77.116H146.296V76.12H153.844V77.428C153.844 77.82 153.84 78.212 153.832 78.604C153.832 78.996 153.816 79.408 153.784 79.84C153.752 80.264 153.704 80.716 153.64 81.196C153.576 81.676 153.484 82.2 153.364 82.768L152.14 82.66C152.252 82.172 152.34 81.716 152.404 81.292C152.468 80.868 152.516 80.452 152.548 80.044L146.152 80.368L145.996 79.36ZM145.156 83.5H154.948V84.52H145.156V83.5ZM159.395 80.896L158.963 79.924C159.491 79.86 159.975 79.748 160.415 79.588C160.855 79.42 161.235 79.22 161.555 78.988C161.883 78.756 162.143 78.5 162.335 78.22C162.527 77.94 162.635 77.656 162.659 77.368H159.323V76.372H162.671V75.088H163.907V76.372H167.267V77.368H163.919C163.943 77.656 164.051 77.94 164.243 78.22C164.435 78.5 164.691 78.756 165.011 78.988C165.339 79.22 165.723 79.42 166.163 79.588C166.603 79.748 167.087 79.86 167.615 79.924L167.171 80.896C166.275 80.784 165.491 80.544 164.819 80.176C164.155 79.8 163.643 79.336 163.283 78.784C162.923 79.336 162.407 79.796 161.735 80.164C161.071 80.532 160.291 80.776 159.395 80.896ZM168.191 81.604V82.624H163.907V85.948H162.671V82.624H158.399V81.604H168.191ZM179.23 79.36V80.392H177.586V85.912H176.35V75.076H177.586V79.36H179.23ZM169.726 76.228H174.754C174.754 77.012 174.666 77.772 174.49 78.508C174.314 79.244 174.03 79.94 173.638 80.596C173.246 81.252 172.742 81.864 172.126 82.432C171.51 82.992 170.758 83.496 169.87 83.944L169.186 82.996C171.826 81.636 173.27 79.716 173.518 77.236H169.726V76.228ZM187.949 83.584H192.257V84.592H182.441V83.584H186.713V81.136H183.533V75.952H191.117V81.136H187.949V83.584ZM184.745 76.936V80.152H189.905V76.936H184.745ZM201.7 77.26H203.236V78.28H201.7V80.512H200.464V75.088H201.7V77.26ZM199.444 78.832L199.588 79.804C199.22 79.884 198.856 79.952 198.496 80.008C198.136 80.056 197.756 80.096 197.356 80.128C196.964 80.152 196.536 80.168 196.072 80.176C195.616 80.184 195.104 80.188 194.536 80.188H193.66V75.688H198.484V76.672H194.896V79.192C195.392 79.192 195.844 79.188 196.252 79.18C196.668 79.164 197.056 79.144 197.416 79.12C197.776 79.096 198.12 79.06 198.448 79.012C198.776 78.964 199.108 78.904 199.444 78.832ZM195.94 83.836V84.808H202.06V85.792H194.728V82.9H200.476V82H194.704V81.004H201.7V83.836H195.94ZM214.21 79.492H211.678C211.43 79.772 211.114 79.996 210.73 80.164C210.346 80.324 209.922 80.404 209.458 80.404C209.05 80.404 208.674 80.344 208.33 80.224C207.986 80.096 207.686 79.924 207.43 79.708C207.182 79.484 206.986 79.22 206.842 78.916C206.698 78.604 206.626 78.268 206.626 77.908C206.626 77.54 206.698 77.204 206.842 76.9C206.986 76.596 207.182 76.336 207.43 76.12C207.686 75.896 207.986 75.724 208.33 75.604C208.674 75.476 209.05 75.412 209.458 75.412C209.914 75.412 210.33 75.488 210.706 75.64C211.082 75.792 211.398 76.008 211.654 76.288H214.21V75.076H215.458V80.584H214.21V79.492ZM207.802 77.908C207.802 78.356 207.958 78.716 208.27 78.988C208.582 79.252 208.978 79.384 209.458 79.384C209.938 79.384 210.33 79.252 210.634 78.988C210.938 78.724 211.09 78.364 211.09 77.908C211.09 77.452 210.938 77.092 210.634 76.828C210.33 76.564 209.938 76.432 209.458 76.432C208.978 76.432 208.582 76.568 208.27 76.84C207.958 77.104 207.802 77.46 207.802 77.908ZM214.21 77.26H212.182C212.238 77.404 212.266 77.62 212.266 77.908C212.266 78.124 212.242 78.328 212.194 78.52H214.21V77.26ZM209.638 84.82H215.818V85.792H208.414V82.948H214.234V82.06H208.402V81.1H215.458V83.86H209.638V84.82ZM224.985 75.088H226.221V85.924H224.985V75.088ZM217.893 76.228H223.029C223.029 77.036 222.941 77.812 222.765 78.556C222.597 79.292 222.313 79.988 221.913 80.644C221.521 81.3 221.005 81.912 220.365 82.48C219.725 83.04 218.941 83.544 218.013 83.992L217.353 83.008C218.777 82.32 219.841 81.5 220.545 80.548C221.249 79.588 221.653 78.484 221.757 77.236H217.893V76.228ZM36.121 112.182C36.953 112.182 37.811 111.909 38.5 111.298L37.746 110.037C37.343 110.388 36.849 110.622 36.329 110.622C35.068 110.622 34.522 109.478 34.522 108.373C34.522 106.969 35.276 106.098 36.381 106.098C36.797 106.098 37.135 106.267 37.499 106.579L38.409 105.344C37.876 104.889 37.187 104.538 36.29 104.538C34.314 104.538 32.572 105.942 32.572 108.373C32.572 110.765 34.106 112.182 36.121 112.182ZM42.2875 112.182C42.9245 112.182 43.4185 112.052 43.8215 111.909L43.5095 110.518C43.3145 110.609 43.0415 110.674 42.7945 110.674C42.1315 110.674 41.8065 110.271 41.8065 109.452V106.228H43.6005V104.72H41.8065V102.77H40.2075L39.9865 104.72L38.8685 104.811V106.228H39.8955V109.452C39.8955 111.09 40.5585 112.182 42.2875 112.182ZM44.8215 112H46.7195V107.658C47.1355 106.605 47.8245 106.228 48.3965 106.228C48.6955 106.228 48.9035 106.254 49.1505 106.345L49.4885 104.694C49.2675 104.603 49.0335 104.538 48.6305 104.538C47.8505 104.538 47.0965 105.058 46.5635 106.007H46.5115L46.3815 104.72H44.8215V112ZM52.1216 112V101.626H50.2236V112H52.1216ZM58.8425 110.583H60.2595V107.814H62.8855V106.462H60.2595V103.693H58.8425V106.462H56.2165V107.814H58.8425V110.583ZM68.91 112.182C70.808 112.182 71.809 111.155 71.809 109.881C71.809 108.516 70.743 108.061 69.781 107.684C69.014 107.411 68.299 107.19 68.299 106.67C68.299 106.254 68.598 105.968 69.261 105.968C69.82 105.968 70.314 106.228 70.834 106.592L71.692 105.435C71.081 104.98 70.301 104.538 69.209 104.538C67.584 104.538 66.505 105.461 66.505 106.774C66.505 107.983 67.571 108.555 68.494 108.893C69.261 109.205 70.015 109.439 70.015 109.985C70.015 110.44 69.69 110.752 68.962 110.752C68.286 110.752 67.675 110.466 67.012 109.959L66.141 111.155C66.869 111.766 67.922 112.182 68.91 112.182ZM73.0066 112H74.9046V106.995C75.4636 106.462 75.8146 106.176 76.4256 106.176C77.1536 106.176 77.4526 106.566 77.4526 107.697V112H79.3636V107.463C79.3636 105.63 78.6876 104.538 77.1146 104.538C76.1266 104.538 75.4116 105.045 74.8266 105.604L74.9046 104.239V101.626H73.0066V112ZM82.791 101.704H80.893V103.55H82.791V101.704ZM82.778 112V104.72H80.88V112H82.778ZM88.6328 101.704C88.3078 101.561 87.8138 101.444 87.2548 101.444C85.4218 101.444 84.7198 102.614 84.7198 104.135V104.733L83.7448 104.811V106.228H84.7198V112H86.6308V106.228H87.9958V104.72H86.6308V104.096C86.6308 103.264 86.9428 102.952 87.5148 102.952C87.7618 102.952 88.0348 103.017 88.2818 103.108L88.6328 101.704ZM91.6367 112.182C92.2737 112.182 92.7677 112.052 93.1707 111.909L92.8587 110.518C92.6637 110.609 92.3907 110.674 92.1437 110.674C91.4807 110.674 91.1557 110.271 91.1557 109.452V106.228H92.9497V104.72H91.1557V102.77H89.5567L89.3357 104.72L88.2177 104.811V106.228H89.2447V109.452C89.2447 111.09 89.9077 112.182 91.6367 112.182ZM98.949 110.583H100.366V107.814H102.992V106.462H100.366V103.693H98.949V106.462H96.323V107.814H98.949V110.583ZM108.575 112H110.785L113.216 104.72H111.383L110.317 108.347C110.122 109.075 109.927 109.816 109.732 110.557H109.667C109.472 109.816 109.277 109.075 109.082 108.347L108.016 104.72H106.092L108.575 112ZM133.353 107.872V108.892H129.081V112.924H127.833V108.892H123.561V107.872H130.581C130.661 107.528 130.725 107.204 130.773 106.9C130.829 106.596 130.869 106.304 130.893 106.024L124.569 106.336L124.425 105.292L130.965 105.064C130.981 104.824 130.989 104.596 130.989 104.38C130.989 104.156 130.989 103.936 130.989 103.72H124.761V102.712H132.189V103.708C132.189 103.988 132.185 104.28 132.177 104.584C132.177 104.888 132.165 105.212 132.141 105.556C132.117 105.892 132.077 106.252 132.021 106.636C131.973 107.012 131.901 107.424 131.805 107.872H133.353ZM142.064 102.088H143.3V112.924H142.064V102.088ZM135.128 103.168H140.168C140.168 103.976 140.092 104.76 139.94 105.52C139.796 106.272 139.536 106.992 139.16 107.68C138.784 108.36 138.272 109 137.624 109.6C136.984 110.2 136.168 110.748 135.176 111.244L134.504 110.272C135.472 109.792 136.252 109.276 136.844 108.724C137.444 108.164 137.912 107.544 138.248 106.864L134.744 107.188L134.576 106.12L138.632 105.868C138.784 105.428 138.884 104.864 138.932 104.176H135.128V103.168ZM154.455 105.88V108.4H153.291V102.292H154.455V104.872H155.595V102.1H156.771V108.748H155.595V105.88H154.455ZM153.039 107.056L152.379 107.98C151.899 107.796 151.491 107.532 151.155 107.188C150.819 106.844 150.547 106.456 150.339 106.024C150.139 106.528 149.863 106.98 149.511 107.38C149.159 107.772 148.719 108.084 148.191 108.316L147.543 107.368C147.903 107.2 148.219 106.996 148.491 106.756C148.771 106.508 148.999 106.24 149.175 105.952C149.359 105.664 149.495 105.364 149.583 105.052C149.679 104.74 149.727 104.428 149.727 104.116V102.748H150.927V104.116C150.927 104.412 150.971 104.708 151.059 105.004C151.147 105.292 151.279 105.568 151.455 105.832C151.631 106.088 151.851 106.324 152.115 106.54C152.379 106.748 152.687 106.92 153.039 107.056ZM153.159 108.952C153.727 108.952 154.235 109 154.683 109.096C155.139 109.184 155.523 109.312 155.835 109.48C156.155 109.648 156.399 109.856 156.567 110.104C156.743 110.352 156.831 110.632 156.831 110.944C156.831 111.256 156.743 111.536 156.567 111.784C156.399 112.024 156.155 112.228 155.835 112.396C155.523 112.564 155.139 112.692 154.683 112.78C154.235 112.876 153.727 112.924 153.159 112.924C152.599 112.924 152.091 112.876 151.635 112.78C151.179 112.692 150.791 112.564 150.471 112.396C150.159 112.228 149.915 112.024 149.739 111.784C149.571 111.536 149.487 111.256 149.487 110.944C149.487 110.632 149.571 110.352 149.739 110.104C149.915 109.856 150.159 109.648 150.471 109.48C150.791 109.312 151.179 109.184 151.635 109.096C152.091 109 152.599 108.952 153.159 108.952ZM153.159 111.976C153.935 111.976 154.535 111.888 154.959 111.712C155.383 111.536 155.595 111.28 155.595 110.944C155.595 110.608 155.383 110.352 154.959 110.176C154.535 109.992 153.935 109.9 153.159 109.9C152.383 109.9 151.783 109.992 151.359 110.176C150.935 110.352 150.723 110.608 150.723 110.944C150.723 111.28 150.935 111.536 151.359 111.712C151.783 111.888 152.383 111.976 153.159 111.976ZM166.142 108.472V105.256H163.946V104.248H166.142V102.076H167.378V108.472H166.142ZM164.834 107.068L164.174 108.04C163.59 107.832 163.09 107.532 162.674 107.14C162.258 106.74 161.934 106.276 161.702 105.748C161.462 106.348 161.114 106.876 160.658 107.332C160.21 107.788 159.658 108.132 159.002 108.364L158.354 107.368C158.786 107.224 159.17 107.028 159.506 106.78C159.842 106.532 160.122 106.248 160.346 105.928C160.578 105.608 160.75 105.26 160.862 104.884C160.982 104.508 161.042 104.124 161.042 103.732V102.664H162.29V103.672C162.29 104.048 162.346 104.412 162.458 104.764C162.57 105.108 162.734 105.432 162.95 105.736C163.166 106.032 163.43 106.296 163.742 106.528C164.062 106.752 164.426 106.932 164.834 107.068ZM163.766 108.772C164.334 108.772 164.842 108.82 165.29 108.916C165.746 109.004 166.13 109.14 166.442 109.324C166.762 109.5 167.006 109.716 167.174 109.972C167.342 110.228 167.426 110.52 167.426 110.848C167.426 111.176 167.342 111.468 167.174 111.724C167.006 111.98 166.762 112.196 166.442 112.372C166.13 112.556 165.746 112.692 165.29 112.78C164.842 112.876 164.334 112.924 163.766 112.924C163.206 112.924 162.698 112.876 162.242 112.78C161.794 112.692 161.41 112.556 161.09 112.372C160.778 112.196 160.538 111.98 160.37 111.724C160.202 111.468 160.118 111.176 160.118 110.848C160.118 110.52 160.202 110.228 160.37 109.972C160.538 109.716 160.778 109.5 161.09 109.324C161.41 109.14 161.794 109.004 162.242 108.916C162.698 108.82 163.206 108.772 163.766 108.772ZM163.766 111.952C164.542 111.952 165.138 111.86 165.554 111.676C165.978 111.484 166.19 111.208 166.19 110.848C166.19 110.488 165.978 110.216 165.554 110.032C165.138 109.84 164.542 109.744 163.766 109.744C162.99 109.744 162.394 109.84 161.978 110.032C161.562 110.216 161.354 110.488 161.354 110.848C161.354 111.208 161.562 111.484 161.978 111.676C162.394 111.86 162.99 111.952 163.766 111.952ZM168.733 113.56L172.069 101.824H173.029L169.693 113.56H168.733ZM181.305 102.076H182.553V112.948H181.305V102.076ZM175.533 104.104V109.264C176.037 109.264 176.501 109.26 176.925 109.252C177.349 109.244 177.749 109.228 178.125 109.204C178.501 109.172 178.865 109.136 179.217 109.096C179.577 109.048 179.937 108.988 180.297 108.916L180.429 109.948C180.037 110.02 179.649 110.08 179.265 110.128C178.881 110.168 178.481 110.204 178.065 110.236C177.657 110.26 177.217 110.276 176.745 110.284C176.281 110.292 175.769 110.296 175.209 110.296H174.309V103.084H179.469V104.104H175.533ZM192.428 102.088H193.604V108.844H192.428V102.088ZM190.292 108.772V105.772H189.104V104.764H190.292V102.292H191.456V108.772H190.292ZM189.476 107.116L189.596 108.1C189.268 108.156 188.948 108.204 188.636 108.244C188.332 108.276 188.02 108.304 187.7 108.328C187.388 108.352 187.06 108.368 186.716 108.376C186.38 108.384 186.016 108.388 185.624 108.388H184.892V105.124H187.508V103.876H184.868V102.904H188.708V106.048H186.092V107.392C186.724 107.392 187.308 107.376 187.844 107.344C188.38 107.304 188.924 107.228 189.476 107.116ZM186.308 110.332V109.336H193.604V112.936H192.368V110.332H186.308ZM200.755 110.632H205.051V111.652H195.235V110.632H199.507V108.592H196.447V102.904H203.863V103.912H197.707V105.22H203.623V106.192H197.707V107.608H203.959V108.592H200.755V110.632ZM213.726 102.064H214.974V112.948H213.726V102.064ZM207.894 107.068V109.348C208.75 109.34 209.57 109.312 210.354 109.264C211.146 109.208 211.97 109.112 212.826 108.976L212.958 109.984C212.494 110.064 212.042 110.132 211.602 110.188C211.162 110.236 210.722 110.276 210.282 110.308C209.842 110.332 209.398 110.348 208.95 110.356C208.51 110.364 208.05 110.368 207.57 110.368H206.646V106.072H210.426V104.056H206.622V103.048H211.674V107.068H207.894ZM226.129 105.88V108.4H224.965V102.292H226.129V104.872H227.269V102.1H228.445V108.748H227.269V105.88H226.129ZM224.713 107.056L224.053 107.98C223.573 107.796 223.165 107.532 222.829 107.188C222.493 106.844 222.221 106.456 222.013 106.024C221.813 106.528 221.537 106.98 221.185 107.38C220.833 107.772 220.393 108.084 219.865 108.316L219.217 107.368C219.577 107.2 219.893 106.996 220.165 106.756C220.445 106.508 220.673 106.24 220.849 105.952C221.033 105.664 221.169 105.364 221.257 105.052C221.353 104.74 221.401 104.428 221.401 104.116V102.748H222.601V104.116C222.601 104.412 222.645 104.708 222.733 105.004C222.821 105.292 222.953 105.568 223.129 105.832C223.305 106.088 223.525 106.324 223.789 106.54C224.053 106.748 224.361 106.92 224.713 107.056ZM224.833 108.952C225.401 108.952 225.909 109 226.357 109.096C226.813 109.184 227.197 109.312 227.509 109.48C227.829 109.648 228.073 109.856 228.241 110.104C228.417 110.352 228.505 110.632 228.505 110.944C228.505 111.256 228.417 111.536 228.241 111.784C228.073 112.024 227.829 112.228 227.509 112.396C227.197 112.564 226.813 112.692 226.357 112.78C225.909 112.876 225.401 112.924 224.833 112.924C224.273 112.924 223.765 112.876 223.309 112.78C222.853 112.692 222.465 112.564 222.145 112.396C221.833 112.228 221.589 112.024 221.413 111.784C221.245 111.536 221.161 111.256 221.161 110.944C221.161 110.632 221.245 110.352 221.413 110.104C221.589 109.856 221.833 109.648 222.145 109.48C222.465 109.312 222.853 109.184 223.309 109.096C223.765 109 224.273 108.952 224.833 108.952ZM224.833 111.976C225.609 111.976 226.209 111.888 226.633 111.712C227.057 111.536 227.269 111.28 227.269 110.944C227.269 110.608 227.057 110.352 226.633 110.176C226.209 109.992 225.609 109.9 224.833 109.9C224.057 109.9 223.457 109.992 223.033 110.176C222.609 110.352 222.397 110.608 222.397 110.944C222.397 111.28 222.609 111.536 223.033 111.712C223.457 111.888 224.057 111.976 224.833 111.976ZM237.816 108.472V105.256H235.62V104.248H237.816V102.076H239.052V108.472H237.816ZM236.508 107.068L235.848 108.04C235.264 107.832 234.764 107.532 234.348 107.14C233.932 106.74 233.608 106.276 233.376 105.748C233.136 106.348 232.788 106.876 232.332 107.332C231.884 107.788 231.332 108.132 230.676 108.364L230.028 107.368C230.46 107.224 230.844 107.028 231.18 106.78C231.516 106.532 231.796 106.248 232.02 105.928C232.252 105.608 232.424 105.26 232.536 104.884C232.656 104.508 232.716 104.124 232.716 103.732V102.664H233.964V103.672C233.964 104.048 234.02 104.412 234.132 104.764C234.244 105.108 234.408 105.432 234.624 105.736C234.84 106.032 235.104 106.296 235.416 106.528C235.736 106.752 236.1 106.932 236.508 107.068ZM235.44 108.772C236.008 108.772 236.516 108.82 236.964 108.916C237.42 109.004 237.804 109.14 238.116 109.324C238.436 109.5 238.68 109.716 238.848 109.972C239.016 110.228 239.1 110.52 239.1 110.848C239.1 111.176 239.016 111.468 238.848 111.724C238.68 111.98 238.436 112.196 238.116 112.372C237.804 112.556 237.42 112.692 236.964 112.78C236.516 112.876 236.008 112.924 235.44 112.924C234.88 112.924 234.372 112.876 233.916 112.78C233.468 112.692 233.084 112.556 232.764 112.372C232.452 112.196 232.212 111.98 232.044 111.724C231.876 111.468 231.792 111.176 231.792 110.848C231.792 110.52 231.876 110.228 232.044 109.972C232.212 109.716 232.452 109.5 232.764 109.324C233.084 109.14 233.468 109.004 233.916 108.916C234.372 108.82 234.88 108.772 235.44 108.772ZM235.44 111.952C236.216 111.952 236.812 111.86 237.228 111.676C237.652 111.484 237.864 111.208 237.864 110.848C237.864 110.488 237.652 110.216 237.228 110.032C236.812 109.84 236.216 109.744 235.44 109.744C234.664 109.744 234.068 109.84 233.652 110.032C233.236 110.216 233.028 110.488 233.028 110.848C233.028 111.208 233.236 111.484 233.652 111.676C234.068 111.86 234.664 111.952 235.44 111.952ZM248.827 110.584H253.135V111.592H243.319V110.584H247.591V108.136H244.411V102.952H251.995V108.136H248.827V110.584ZM245.623 103.936V107.152H250.783V103.936H245.623ZM262.578 104.26H264.114V105.28H262.578V107.512H261.342V102.088H262.578V104.26ZM260.322 105.832L260.466 106.804C260.098 106.884 259.734 106.952 259.374 107.008C259.014 107.056 258.634 107.096 258.234 107.128C257.842 107.152 257.414 107.168 256.95 107.176C256.494 107.184 255.982 107.188 255.414 107.188H254.538V102.688H259.362V103.672H255.774V106.192C256.27 106.192 256.722 106.188 257.13 106.18C257.546 106.164 257.934 106.144 258.294 106.12C258.654 106.096 258.998 106.06 259.326 106.012C259.654 105.964 259.986 105.904 260.322 105.832ZM256.818 110.836V111.808H262.938V112.792H255.606V109.9H261.354V109H255.582V108.004H262.578V110.836H256.818ZM275.088 106.492H272.556C272.308 106.772 271.992 106.996 271.608 107.164C271.224 107.324 270.8 107.404 270.336 107.404C269.928 107.404 269.552 107.344 269.208 107.224C268.864 107.096 268.564 106.924 268.308 106.708C268.06 106.484 267.864 106.22 267.72 105.916C267.576 105.604 267.504 105.268 267.504 104.908C267.504 104.54 267.576 104.204 267.72 103.9C267.864 103.596 268.06 103.336 268.308 103.12C268.564 102.896 268.864 102.724 269.208 102.604C269.552 102.476 269.928 102.412 270.336 102.412C270.792 102.412 271.208 102.488 271.584 102.64C271.96 102.792 272.276 103.008 272.532 103.288H275.088V102.076H276.336V107.584H275.088V106.492ZM268.68 104.908C268.68 105.356 268.836 105.716 269.148 105.988C269.46 106.252 269.856 106.384 270.336 106.384C270.816 106.384 271.208 106.252 271.512 105.988C271.816 105.724 271.968 105.364 271.968 104.908C271.968 104.452 271.816 104.092 271.512 103.828C271.208 103.564 270.816 103.432 270.336 103.432C269.856 103.432 269.46 103.568 269.148 103.84C268.836 104.104 268.68 104.46 268.68 104.908ZM275.088 104.26H273.06C273.116 104.404 273.144 104.62 273.144 104.908C273.144 105.124 273.12 105.328 273.072 105.52H275.088V104.26ZM270.516 111.82H276.696V112.792H269.292V109.948H275.112V109.06H269.28V108.1H276.336V110.86H270.516V111.82ZM285.863 102.088H287.099V112.924H285.863V102.088ZM278.771 103.228H283.907C283.907 104.036 283.819 104.812 283.643 105.556C283.475 106.292 283.191 106.988 282.791 107.644C282.399 108.3 281.883 108.912 281.243 109.48C280.603 110.04 279.819 110.544 278.891 110.992L278.231 110.008C279.655 109.32 280.719 108.5 281.423 107.548C282.127 106.588 282.531 105.484 282.635 104.236H278.771V103.228ZM36.121 139.182C36.953 139.182 37.811 138.909 38.5 138.298L37.746 137.037C37.343 137.388 36.849 137.622 36.329 137.622C35.068 137.622 34.522 136.478 34.522 135.373C34.522 133.969 35.276 133.098 36.381 133.098C36.797 133.098 37.135 133.267 37.499 133.579L38.409 132.344C37.876 131.889 37.187 131.538 36.29 131.538C34.314 131.538 32.572 132.942 32.572 135.373C32.572 137.765 34.106 139.182 36.121 139.182ZM42.2875 139.182C42.9245 139.182 43.4185 139.052 43.8215 138.909L43.5095 137.518C43.3145 137.609 43.0415 137.674 42.7945 137.674C42.1315 137.674 41.8065 137.271 41.8065 136.452V133.228H43.6005V131.72H41.8065V129.77H40.2075L39.9865 131.72L38.8685 131.811V133.228H39.8955V136.452C39.8955 138.09 40.5585 139.182 42.2875 139.182ZM44.8215 139H46.7195V134.658C47.1355 133.605 47.8245 133.228 48.3965 133.228C48.6955 133.228 48.9035 133.254 49.1505 133.345L49.4885 131.694C49.2675 131.603 49.0335 131.538 48.6305 131.538C47.8505 131.538 47.0965 132.058 46.5635 133.007H46.5115L46.3815 131.72H44.8215V139ZM52.1216 139V128.626H50.2236V139H52.1216ZM58.8425 137.583H60.2595V134.814H62.8855V133.462H60.2595V130.693H58.8425V133.462H56.2165V134.814H58.8425V137.583ZM68.91 139.182C70.808 139.182 71.809 138.155 71.809 136.881C71.809 135.516 70.743 135.061 69.781 134.684C69.014 134.411 68.299 134.19 68.299 133.67C68.299 133.254 68.598 132.968 69.261 132.968C69.82 132.968 70.314 133.228 70.834 133.592L71.692 132.435C71.081 131.98 70.301 131.538 69.209 131.538C67.584 131.538 66.505 132.461 66.505 133.774C66.505 134.983 67.571 135.555 68.494 135.893C69.261 136.205 70.015 136.439 70.015 136.985C70.015 137.44 69.69 137.752 68.962 137.752C68.286 137.752 67.675 137.466 67.012 136.959L66.141 138.155C66.869 138.766 67.922 139.182 68.91 139.182ZM73.0066 139H74.9046V133.995C75.4636 133.462 75.8146 133.176 76.4256 133.176C77.1536 133.176 77.4526 133.566 77.4526 134.697V139H79.3636V134.463C79.3636 132.63 78.6876 131.538 77.1146 131.538C76.1266 131.538 75.4116 132.045 74.8266 132.604L74.9046 131.239V128.626H73.0066V139ZM82.791 128.704H80.893V130.55H82.791V128.704ZM82.778 139V131.72H80.88V139H82.778ZM88.6328 128.704C88.3078 128.561 87.8138 128.444 87.2548 128.444C85.4218 128.444 84.7198 129.614 84.7198 131.135V131.733L83.7448 131.811V133.228H84.7198V139H86.6308V133.228H87.9958V131.72H86.6308V131.096C86.6308 130.264 86.9428 129.952 87.5148 129.952C87.7618 129.952 88.0348 130.017 88.2818 130.108L88.6328 128.704ZM91.6367 139.182C92.2737 139.182 92.7677 139.052 93.1707 138.909L92.8587 137.518C92.6637 137.609 92.3907 137.674 92.1437 137.674C91.4807 137.674 91.1557 137.271 91.1557 136.452V133.228H92.9497V131.72H91.1557V129.77H89.5567L89.3357 131.72L88.2177 131.811V133.228H89.2447V136.452C89.2447 138.09 89.9077 139.182 91.6367 139.182ZM98.949 137.583H100.366V134.814H102.992V133.462H100.366V130.693H98.949V133.462H96.323V134.814H98.949V137.583ZM106.443 139H112.189V137.492H108.822L112.085 132.747V131.72H106.807V133.228H109.693L106.443 137.973V139ZM130.662 137.584H134.97V138.592H125.154V137.584H129.426V135.136H126.246V129.952H133.83V135.136H130.662V137.584ZM127.458 130.936V134.152H132.618V130.936H127.458ZM144.653 132.448V133.456H137.177V129.52H144.569V130.516H138.401V132.448H144.653ZM135.965 134.5H145.769V135.508H135.965V134.5ZM138.401 136.516V138.712H144.737V139.708H137.165V136.516H138.401ZM158.988 134.872V135.892H154.716V139.924H153.468V135.892H149.196V134.872H156.216C156.296 134.528 156.36 134.204 156.408 133.9C156.464 133.596 156.504 133.304 156.528 133.024L150.204 133.336L150.06 132.292L156.6 132.064C156.616 131.824 156.624 131.596 156.624 131.38C156.624 131.156 156.624 130.936 156.624 130.72H150.396V129.712H157.824V130.708C157.824 130.988 157.82 131.28 157.812 131.584C157.812 131.888 157.8 132.212 157.776 132.556C157.752 132.892 157.712 133.252 157.656 133.636C157.608 134.012 157.536 134.424 157.44 134.872H158.988ZM167.699 129.088H168.935V139.924H167.699V129.088ZM160.763 130.168H165.803C165.803 130.976 165.727 131.76 165.575 132.52C165.431 133.272 165.171 133.992 164.795 134.68C164.419 135.36 163.907 136 163.259 136.6C162.619 137.2 161.803 137.748 160.811 138.244L160.139 137.272C161.107 136.792 161.887 136.276 162.479 135.724C163.079 135.164 163.547 134.544 163.883 133.864L160.379 134.188L160.211 133.12L164.267 132.868C164.419 132.428 164.519 131.864 164.567 131.176H160.763V130.168ZM181.23 129.088H182.406V135.232H181.23V132.64H180.03V135.172H178.878V129.28H180.03V131.62H181.23V129.088ZM178.206 133.528L178.338 134.524C178.026 134.58 177.722 134.628 177.426 134.668C177.138 134.7 176.838 134.728 176.526 134.752C176.214 134.768 175.882 134.78 175.53 134.788C175.186 134.796 174.802 134.8 174.378 134.8H173.646V129.7H177.87V130.696H174.846V131.74H177.75V132.7H174.846V133.792C175.19 133.792 175.506 133.788 175.794 133.78C176.09 133.772 176.37 133.756 176.634 133.732C176.906 133.708 177.17 133.68 177.426 133.648C177.682 133.616 177.942 133.576 178.206 133.528ZM181.194 136.708V135.652H182.406V139.792H175.194V135.652H176.418V136.708H181.194ZM181.194 138.796V137.68H176.418V138.796H181.194ZM36.121 166.182C36.953 166.182 37.811 165.909 38.5 165.298L37.746 164.037C37.343 164.388 36.849 164.622 36.329 164.622C35.068 164.622 34.522 163.478 34.522 162.373C34.522 160.969 35.276 160.098 36.381 160.098C36.797 160.098 37.135 160.267 37.499 160.579L38.409 159.344C37.876 158.889 37.187 158.538 36.29 158.538C34.314 158.538 32.572 159.942 32.572 162.373C32.572 164.765 34.106 166.182 36.121 166.182ZM42.2875 166.182C42.9245 166.182 43.4185 166.052 43.8215 165.909L43.5095 164.518C43.3145 164.609 43.0415 164.674 42.7945 164.674C42.1315 164.674 41.8065 164.271 41.8065 163.452V160.228H43.6005V158.72H41.8065V156.77H40.2075L39.9865 158.72L38.8685 158.811V160.228H39.8955V163.452C39.8955 165.09 40.5585 166.182 42.2875 166.182ZM44.8215 166H46.7195V161.658C47.1355 160.605 47.8245 160.228 48.3965 160.228C48.6955 160.228 48.9035 160.254 49.1505 160.345L49.4885 158.694C49.2675 158.603 49.0335 158.538 48.6305 158.538C47.8505 158.538 47.0965 159.058 46.5635 160.007H46.5115L46.3815 158.72H44.8215V166ZM52.1216 166V155.626H50.2236V166H52.1216ZM58.8425 164.583H60.2595V161.814H62.8855V160.462H60.2595V157.693H58.8425V160.462H56.2165V161.814H58.8425V164.583ZM68.91 166.182C70.808 166.182 71.809 165.155 71.809 163.881C71.809 162.516 70.743 162.061 69.781 161.684C69.014 161.411 68.299 161.19 68.299 160.67C68.299 160.254 68.598 159.968 69.261 159.968C69.82 159.968 70.314 160.228 70.834 160.592L71.692 159.435C71.081 158.98 70.301 158.538 69.209 158.538C67.584 158.538 66.505 159.461 66.505 160.774C66.505 161.983 67.571 162.555 68.494 162.893C69.261 163.205 70.015 163.439 70.015 163.985C70.015 164.44 69.69 164.752 68.962 164.752C68.286 164.752 67.675 164.466 67.012 163.959L66.141 165.155C66.869 165.766 67.922 166.182 68.91 166.182ZM73.0066 166H74.9046V160.995C75.4636 160.462 75.8146 160.176 76.4256 160.176C77.1536 160.176 77.4526 160.566 77.4526 161.697V166H79.3636V161.463C79.3636 159.63 78.6876 158.538 77.1146 158.538C76.1266 158.538 75.4116 159.045 74.8266 159.604L74.9046 158.239V155.626H73.0066V166ZM82.791 155.704H80.893V157.55H82.791V155.704ZM82.778 166V158.72H80.88V166H82.778ZM88.6328 155.704C88.3078 155.561 87.8138 155.444 87.2548 155.444C85.4218 155.444 84.7198 156.614 84.7198 158.135V158.733L83.7448 158.811V160.228H84.7198V166H86.6308V160.228H87.9958V158.72H86.6308V158.096C86.6308 157.264 86.9428 156.952 87.5148 156.952C87.7618 156.952 88.0348 157.017 88.2818 157.108L88.6328 155.704ZM91.6367 166.182C92.2737 166.182 92.7677 166.052 93.1707 165.909L92.8587 164.518C92.6637 164.609 92.3907 164.674 92.1437 164.674C91.4807 164.674 91.1557 164.271 91.1557 163.452V160.228H92.9497V158.72H91.1557V156.77H89.5567L89.3357 158.72L88.2177 158.811V160.228H89.2447V163.452C89.2447 165.09 89.9077 166.182 91.6367 166.182ZM98.949 164.583H100.366V161.814H102.992V160.462H100.366V157.693H98.949V160.462H96.323V161.814H98.949V164.583ZM106.118 166H108.094L108.77 164.674C108.978 164.219 109.173 163.803 109.381 163.387H109.446C109.693 163.803 109.901 164.245 110.148 164.674L110.954 166H113.008L110.733 162.425L112.865 158.72H110.889L110.278 160.02C110.109 160.423 109.914 160.839 109.745 161.242H109.693C109.472 160.839 109.264 160.436 109.043 160.02L108.315 158.72H106.261L108.393 162.204L106.118 166ZM133.483 156.076H134.73V166.948H133.483V156.076ZM127.71 158.104V163.264C128.214 163.264 128.678 163.26 129.102 163.252C129.526 163.244 129.926 163.228 130.302 163.204C130.678 163.172 131.042 163.136 131.394 163.096C131.754 163.048 132.114 162.988 132.474 162.916L132.606 163.948C132.214 164.02 131.826 164.08 131.442 164.128C131.058 164.168 130.658 164.204 130.242 164.236C129.834 164.26 129.394 164.276 128.922 164.284C128.458 164.292 127.946 164.296 127.386 164.296H126.486V157.084H131.646V158.104H127.71ZM144.606 156.088H145.782V162.844H144.606V156.088ZM142.47 162.772V159.772H141.282V158.764H142.47V156.292H143.634V162.772H142.47ZM141.654 161.116L141.774 162.1C141.446 162.156 141.126 162.204 140.814 162.244C140.51 162.276 140.198 162.304 139.878 162.328C139.566 162.352 139.238 162.368 138.894 162.376C138.558 162.384 138.194 162.388 137.802 162.388H137.07V159.124H139.686V157.876H137.046V156.904H140.886V160.048H138.27V161.392C138.902 161.392 139.486 161.376 140.022 161.344C140.558 161.304 141.102 161.228 141.654 161.116ZM138.486 164.332V163.336H145.782V166.936H144.546V164.332H138.486ZM152.933 164.632H157.229V165.652H147.413V164.632H151.685V162.592H148.625V156.904H156.041V157.912H149.885V159.22H155.801V160.192H149.885V161.608H156.137V162.592H152.933V164.632ZM165.904 156.064H167.152V166.948H165.904V156.064ZM160.072 161.068V163.348C160.928 163.34 161.748 163.312 162.532 163.264C163.324 163.208 164.148 163.112 165.004 162.976L165.136 163.984C164.672 164.064 164.22 164.132 163.78 164.188C163.34 164.236 162.9 164.276 162.46 164.308C162.02 164.332 161.576 164.348 161.128 164.356C160.688 164.364 160.228 164.368 159.748 164.368H158.824V160.072H162.604V158.056H158.8V157.048H163.852V161.068H160.072ZM179.446 156.088H180.622V162.232H179.446V159.64H178.246V162.172H177.094V156.28H178.246V158.62H179.446V156.088ZM176.422 160.528L176.554 161.524C176.242 161.58 175.938 161.628 175.642 161.668C175.354 161.7 175.054 161.728 174.742 161.752C174.43 161.768 174.098 161.78 173.746 161.788C173.402 161.796 173.018 161.8 172.594 161.8H171.862V156.7H176.086V157.696H173.062V158.74H175.966V159.7H173.062V160.792C173.406 160.792 173.722 160.788 174.01 160.78C174.306 160.772 174.586 160.756 174.85 160.732C175.122 160.708 175.386 160.68 175.642 160.648C175.898 160.616 176.158 160.576 176.422 160.528ZM179.41 163.708V162.652H180.622V166.792H173.41V162.652H174.634V163.708H179.41ZM179.41 165.796V164.68H174.634V165.796H179.41Z" fill="#363636"/>
<path d="M32.5 66.5H289" stroke="#F3F3F3"/>
<path d="M32.5 93.6665H289" stroke="#F3F3F3"/>
<path d="M32.5 120.833H289" stroke="#F3F3F3"/>
<path d="M32.5 148H289" stroke="#F3F3F3"/>
<path opacity="0.6" d="M58.6755 28.9536V29.8036H55.1155V33.1636H54.0755V29.8036H50.5155V28.9536H56.3655C56.4321 28.6669 56.4855 28.3969 56.5255 28.1436C56.5721 27.8902 56.6055 27.6469 56.6255 27.4136L51.3555 27.6736L51.2355 26.8036L56.6855 26.6136C56.6988 26.4136 56.7055 26.2236 56.7055 26.0436C56.7055 25.8569 56.7055 25.6736 56.7055 25.4936H51.5155V24.6536H57.7055V25.4836C57.7055 25.7169 57.7021 25.9602 57.6955 26.2136C57.6955 26.4669 57.6855 26.7369 57.6655 27.0236C57.6455 27.3036 57.6121 27.6036 57.5655 27.9236C57.5255 28.2369 57.4655 28.5802 57.3855 28.9536H58.6755ZM65.9347 24.1336H66.9647V33.1636H65.9347V24.1336ZM60.1547 25.0336H64.3547C64.3547 25.7069 64.2914 26.3602 64.1647 26.9936C64.0447 27.6202 63.828 28.2202 63.5147 28.7936C63.2014 29.3602 62.7747 29.8936 62.2347 30.3936C61.7014 30.8936 61.0214 31.3502 60.1947 31.7636L59.6347 30.9536C60.4414 30.5536 61.0914 30.1236 61.5847 29.6636C62.0847 29.1969 62.4747 28.6802 62.7547 28.1136L59.8347 28.3836L59.6947 27.4936L63.0747 27.2836C63.2014 26.9169 63.2847 26.4469 63.3247 25.8736H60.1547V25.0336ZM76.9139 27.6636V28.5136H75.5039V33.1736H74.4739V24.1336H75.5039V27.6636H76.9139ZM72.7439 25.8736V30.0336C72.9572 30.0136 73.1672 29.9936 73.3739 29.9736C73.5806 29.9536 73.7839 29.9302 73.9839 29.9036L74.0439 30.6636C73.5772 30.7436 73.1006 30.8069 72.6139 30.8536C72.1272 30.9002 71.6439 30.9336 71.1639 30.9536C70.6906 30.9736 70.2272 30.9869 69.7739 30.9936C69.3272 31.0002 68.9072 31.0036 68.5139 31.0036L68.4039 30.1536H69.5139V25.8736H68.6339V25.0436H73.6239V25.8736H72.7439ZM70.5139 25.8736V30.1336C70.7139 30.1269 70.9172 30.1202 71.1239 30.1136C71.3306 30.1069 71.5372 30.0969 71.7439 30.0836V25.8736H70.5139ZM84.9531 24.1336V29.5236H83.9231V24.1336H84.9531ZM78.1331 24.7036H82.3031C82.3031 25.3102 82.2231 25.8702 82.0631 26.3836C81.9031 26.8902 81.6531 27.3502 81.3131 27.7636C80.9731 28.1769 80.5398 28.5402 80.0131 28.8536C79.4865 29.1669 78.8531 29.4302 78.1131 29.6436L77.7231 28.8236C78.4298 28.6302 79.0131 28.3936 79.4731 28.1136C79.9398 27.8269 80.3131 27.5036 80.5931 27.1436L77.8331 27.3536L77.6831 26.5336L81.0231 26.3936C81.0698 26.2602 81.1098 26.1236 81.1431 25.9836C81.1765 25.8436 81.1998 25.6969 81.2131 25.5436H78.1331V24.7036ZM81.9531 29.6536C82.4265 29.6536 82.8498 29.6936 83.2231 29.7736C83.5965 29.8536 83.9165 29.9702 84.1831 30.1236C84.4498 30.2702 84.6531 30.4536 84.7931 30.6736C84.9331 30.8936 85.0031 31.1402 85.0031 31.4136C85.0031 31.6869 84.9331 31.9336 84.7931 32.1536C84.6531 32.3669 84.4498 32.5469 84.1831 32.6936C83.9165 32.8469 83.5965 32.9636 83.2231 33.0436C82.8498 33.1236 82.4265 33.1636 81.9531 33.1636C81.4798 33.1636 81.0531 33.1236 80.6731 33.0436C80.2931 32.9636 79.9698 32.8469 79.7031 32.6936C79.4431 32.5469 79.2398 32.3669 79.0931 32.1536C78.9531 31.9336 78.8831 31.6869 78.8831 31.4136C78.8831 31.1402 78.9531 30.8936 79.0931 30.6736C79.2398 30.4536 79.4431 30.2702 79.7031 30.1236C79.9698 29.9702 80.2931 29.8536 80.6731 29.7736C81.0531 29.6936 81.4798 29.6536 81.9531 29.6536ZM81.9531 32.3636C82.5998 32.3636 83.0965 32.2802 83.4431 32.1136C83.7965 31.9469 83.9731 31.7136 83.9731 31.4136C83.9731 31.1069 83.7965 30.8736 83.4431 30.7136C83.0965 30.5536 82.5998 30.4736 81.9531 30.4736C81.3065 30.4736 80.8031 30.5536 80.4431 30.7136C80.0898 30.8736 79.9131 31.1069 79.9131 31.4136C79.9131 31.7136 80.0898 31.9469 80.4431 32.1136C80.8031 32.2802 81.3065 32.3636 81.9531 32.3636ZM93.3623 26.7136H94.6423V27.5636H93.3623V30.6636H92.3323V24.1236H93.3623V26.7136ZM91.4823 27.9836L91.5823 28.8136C91.289 28.8736 90.9957 28.9236 90.7023 28.9636C90.4157 29.0036 90.109 29.0369 89.7823 29.0636C89.4557 29.0836 89.099 29.1002 88.7123 29.1136C88.3323 29.1202 87.899 29.1236 87.4123 29.1236H86.6823V24.8736H90.7023V25.7136H87.7123V28.2736C88.139 28.2736 88.5223 28.2702 88.8623 28.2636C89.209 28.2569 89.529 28.2436 89.8223 28.2236C90.1223 28.1969 90.4057 28.1669 90.6723 28.1336C90.939 28.0936 91.209 28.0436 91.4823 27.9836ZM88.6823 30.0036V32.1536H93.7223V32.9936H87.6423V30.0036H88.6823ZM96.0416 28.2136L95.7316 27.4336C96.6582 27.3602 97.3882 27.1736 97.9216 26.8736C98.4616 26.5669 98.7549 26.2102 98.8016 25.8036H96.1116V24.9936H98.8716V24.1036H99.9016V24.9936H102.652V25.8036H99.9716C100.025 26.2236 100.312 26.5836 100.832 26.8836C101.352 27.1769 102.088 27.3602 103.042 27.4336L102.722 28.2136C101.935 28.1469 101.252 27.9902 100.672 27.7436C100.092 27.4902 99.6616 27.1602 99.3816 26.7536C99.1016 27.1602 98.6716 27.4902 98.0916 27.7436C97.5116 27.9902 96.8282 28.1469 96.0416 28.2136ZM103.472 29.4636H99.9016V30.3736H102.472V33.1536H101.442V31.1936H96.2116V30.3736H98.8716V29.4636H95.3016V28.6336H103.472V29.4636ZM110.731 24.1336H111.761V33.1636H110.731V24.1336ZM104.951 25.0336H109.151C109.151 25.7069 109.087 26.3602 108.961 26.9936C108.841 27.6202 108.624 28.2202 108.311 28.7936C107.997 29.3602 107.571 29.8936 107.031 30.3936C106.497 30.8936 105.817 31.3502 104.991 31.7636L104.431 30.9536C105.237 30.5536 105.887 30.1236 106.381 29.6636C106.881 29.1969 107.271 28.6802 107.551 28.1136L104.631 28.3836L104.491 27.4936L107.871 27.2836C107.997 26.9169 108.081 26.4469 108.121 25.8736H104.951V25.0336Z" fill="#363636"/>
<g opacity="0.6">
<path d="M44.3406 24.125C44.7136 24.125 45.0713 24.2732 45.335 24.5369C45.5987 24.8006 45.7469 25.1583 45.7469 25.5313V31.4719C45.7469 31.8448 45.5987 32.2025 45.335 32.4662C45.0713 32.73 44.7136 32.8781 44.3406 32.8781H34.6562C34.4716 32.8781 34.2887 32.8418 34.1181 32.7711C33.9475 32.7004 33.7925 32.5968 33.6619 32.4662C33.5313 32.3357 33.4277 32.1806 33.357 32.01C33.2864 31.8394 33.25 31.6565 33.25 31.4719V25.5313C33.25 25.1583 33.3982 24.8006 33.6619 24.5369C33.9256 24.2732 34.2833 24.125 34.6562 24.125H44.3406V24.125ZM42.7812 30.0625H36.2188L36.155 30.0669C36.0428 30.0823 35.94 30.1378 35.8656 30.2232C35.7911 30.3086 35.7501 30.418 35.7501 30.5313C35.7501 30.6445 35.7911 30.7539 35.8656 30.8393C35.94 30.9247 36.0428 30.9802 36.155 30.9956L36.2188 31H42.7812L42.845 30.9956C42.9572 30.9802 43.06 30.9247 43.1344 30.8393C43.2089 30.7539 43.2499 30.6445 43.2499 30.5313C43.2499 30.418 43.2089 30.3086 43.1344 30.2232C43.06 30.1378 42.9572 30.0823 42.845 30.0669L42.7812 30.0625ZM42.3125 27.875C42.1467 27.875 41.9878 27.9408 41.8706 28.0581C41.7533 28.1753 41.6875 28.3342 41.6875 28.5C41.6875 28.6658 41.7533 28.8247 41.8706 28.9419C41.9878 29.0592 42.1467 29.125 42.3125 29.125C42.4783 29.125 42.6372 29.0592 42.7544 28.9419C42.8717 28.8247 42.9375 28.6658 42.9375 28.5C42.9375 28.3342 42.8717 28.1753 42.7544 28.0581C42.6372 27.9408 42.4783 27.875 42.3125 27.875ZM40.4406 27.875C40.2749 27.875 40.1159 27.9408 39.9987 28.0581C39.8815 28.1753 39.8156 28.3342 39.8156 28.5C39.8156 28.6658 39.8815 28.8247 39.9987 28.9419C40.1159 29.0592 40.2749 29.125 40.4406 29.125C40.6064 29.125 40.7654 29.0592 40.8826 28.9419C40.9998 28.8247 41.0656 28.6658 41.0656 28.5C41.0656 28.3342 40.9998 28.1753 40.8826 28.0581C40.7654 27.9408 40.6064 27.875 40.4406 27.875ZM38.5656 27.875C38.3999 27.875 38.2409 27.9408 38.1237 28.0581C38.0065 28.1753 37.9406 28.3342 37.9406 28.5C37.9406 28.6658 38.0065 28.8247 38.1237 28.9419C38.2409 29.0592 38.3999 29.125 38.5656 29.125C38.7314 29.125 38.8904 29.0592 39.0076 28.9419C39.1248 28.8247 39.1906 28.6658 39.1906 28.5C39.1906 28.3342 39.1248 28.1753 39.0076 28.0581C38.8904 27.9408 38.7314 27.875 38.5656 27.875ZM36.6906 27.875C36.5249 27.875 36.3659 27.9408 36.2487 28.0581C36.1315 28.1753 36.0656 28.3342 36.0656 28.5C36.0656 28.6658 36.1315 28.8247 36.2487 28.9419C36.3659 29.0592 36.5249 29.125 36.6906 29.125C36.8564 29.125 37.0154 29.0592 37.1326 28.9419C37.2498 28.8247 37.3156 28.6658 37.3156 28.5C37.3156 28.3342 37.2498 28.1753 37.1326 28.0581C37.0154 27.9408 36.8564 27.875 36.6906 27.875ZM35.75 26C35.5842 26 35.4253 26.0658 35.3081 26.1831C35.1908 26.3003 35.125 26.4592 35.125 26.625C35.125 26.7908 35.1908 26.9497 35.3081 27.0669C35.4253 27.1842 35.5842 27.25 35.75 27.25C35.9158 27.25 36.0747 27.1842 36.1919 27.0669C36.3092 26.9497 36.375 26.7908 36.375 26.625C36.375 26.4592 36.3092 26.3003 36.1919 26.1831C36.0747 26.0658 35.9158 26 35.75 26ZM37.6219 26C37.4561 26 37.2971 26.0658 37.1799 26.1831C37.0627 26.3003 36.9969 26.4592 36.9969 26.625C36.9969 26.7908 37.0627 26.9497 37.1799 27.0669C37.2971 27.1842 37.4561 27.25 37.6219 27.25C37.7876 27.25 37.9466 27.1842 38.0638 27.0669C38.181 26.9497 38.2469 26.7908 38.2469 26.625C38.2469 26.4592 38.181 26.3003 38.0638 26.1831C37.9466 26.0658 37.7876 26 37.6219 26ZM39.4969 26C39.3311 26 39.1721 26.0658 39.0549 26.1831C38.9377 26.3003 38.8719 26.4592 38.8719 26.625C38.8719 26.7908 38.9377 26.9497 39.0549 27.0669C39.1721 27.1842 39.3311 27.25 39.4969 27.25C39.6626 27.25 39.8216 27.1842 39.9388 27.0669C40.056 26.9497 40.1219 26.7908 40.1219 26.625C40.1219 26.4592 40.056 26.3003 39.9388 26.1831C39.8216 26.0658 39.6626 26 39.4969 26ZM41.3719 26C41.2061 26 41.0471 26.0658 40.9299 26.1831C40.8127 26.3003 40.7469 26.4592 40.7469 26.625C40.7469 26.7908 40.8127 26.9497 40.9299 27.0669C41.0471 27.1842 41.2061 27.25 41.3719 27.25C41.5376 27.25 41.6966 27.1842 41.8138 27.0669C41.931 26.9497 41.9969 26.7908 41.9969 26.625C41.9969 26.4592 41.931 26.3003 41.8138 26.1831C41.6966 26.0658 41.5376 26 41.3719 26ZM43.2469 26C43.0811 26 42.9221 26.0658 42.8049 26.1831C42.6877 26.3003 42.6219 26.4592 42.6219 26.625C42.6219 26.7908 42.6877 26.9497 42.8049 27.0669C42.9221 27.1842 43.0811 27.25 43.2469 27.25C43.4126 27.25 43.5716 27.1842 43.6888 27.0669C43.806 26.9497 43.8719 26.7908 43.8719 26.625C43.8719 26.4592 43.806 26.3003 43.6888 26.1831C43.5716 26.0658 43.4126 26 43.2469 26Z" fill="black"/>
</g>
<defs>
<filter id="filter0_d_3521_814" x="0" y="0" width="319" height="208.901" filterUnits="userSpaceOnUse" color-interpolation-filters="sRGB">
<feFlood flood-opacity="0" result="BackgroundImageFix"/>
<feColorMatrix in="SourceAlpha" type="matrix" values="0 0 0 0 0 0 0 0 0 0 0 0 0 0 0 0 0 0 127 0" result="hardAlpha"/>
<feOffset dy="3"/>
<feGaussianBlur stdDeviation="6"/>
<feColorMatrix type="matrix" values="0 0 0 0 0 0 0 0 0 0 0 0 0 0 0 0 0 0 0.12 0"/>
<feBlend mode="normal" in2="BackgroundImageFix" result="effect1_dropShadow_3521_814"/>
<feBlend mode="normal" in="SourceGraphic" in2="effect1_dropShadow_3521_814" result="shape"/>
</filter>
</defs>
</svg>
