<svg width="100%" height="100%" viewBox="0 0 18 18" fill="none" xmlns="http://www.w3.org/2000/svg">
<path d="M17.9946 8.77393L17.9928 8.71843C17.9824 8.39083 17.7275 8.12324 17.4003 8.09707C15.5146 7.9459 14.0575 6.40491 14.0101 4.51196C14.002 4.17894 13.7407 3.90684 13.4082 3.88518C11.6068 3.76831 10.1651 2.38075 9.97964 0.586162C9.9467 0.267586 9.68453 0.0216596 9.3646 0.00902482C9.24367 0.00406117 9.12229 0 9 0C4.03725 0 0 4.03725 0 9C0 13.9627 4.03725 18 9 18C13.9627 18 18 13.9627 18 9C17.9995 8.92419 17.9973 8.84883 17.9946 8.77393ZM10.0338 8.97383C10.0338 9.54916 9.56766 10.0153 8.99233 10.0153C8.417 10.0153 7.95087 9.54916 7.95087 8.97383C7.95087 8.3985 8.417 7.93236 8.99233 7.93236C9.56766 7.93236 10.0338 8.3985 10.0338 8.97383ZM7.71396 5.15272C7.71396 5.72805 7.24783 6.19418 6.6725 6.19418C6.09717 6.19418 5.63104 5.72805 5.63104 5.15272C5.63104 4.57739 6.09717 4.11126 6.6725 4.11126C7.24783 4.11081 7.71396 4.57739 7.71396 5.15272ZM4.55437 8.57538C5.12971 8.57538 5.59584 9.04151 5.59584 9.61685C5.59584 10.1922 5.12971 10.6583 4.55437 10.6583C3.97904 10.6583 3.51291 10.1922 3.51291 9.61685C3.51291 9.04197 3.97904 8.57538 4.55437 8.57538ZM7.71396 13.4799C7.71396 12.9046 8.1801 12.4385 8.75543 12.4385C9.33076 12.4385 9.79689 12.9046 9.79689 13.4799C9.79689 14.0553 9.33076 14.5214 8.75543 14.5214C8.1801 14.5214 7.71396 14.0553 7.71396 13.4799ZM13.049 9.86413C13.6243 9.86413 14.0904 10.3303 14.0904 10.9056C14.0904 11.4809 13.6243 11.9471 13.049 11.9471C12.4737 11.9471 12.0075 11.4809 12.0075 10.9056C12.0075 10.3303 12.4737 9.86413 13.049 9.86413Z" fill="white"/>
</svg>
