<svg width="16" height="16" viewBox="0 0 16 16" fill="none" xmlns="http://www.w3.org/2000/svg">
<path d="M8.0009 16C3.58877 16 0 12.4116 0 8C0 3.58837 3.58877 0 8.0009 0C8.11008 0 8.21747 0.00357942 8.32487 0.00894855C8.60946 0.0196868 8.84215 0.239821 8.87079 0.522595C9.03546 2.11723 10.317 3.35034 11.919 3.45414C12.2143 3.47383 12.447 3.71544 12.4542 4.01074C12.4971 5.69306 13.7913 7.06398 15.4684 7.19821C15.7584 7.22148 15.9857 7.45951 15.9946 7.75123L15.9964 7.80134C15.9982 7.86756 16 7.93557 16 8.00179C16.0018 12.4116 12.413 16 8.0009 16ZM7.81474 1.1472C4.12037 1.24564 1.14554 4.28277 1.14554 8C1.14554 11.7799 4.22061 14.8546 8.0009 14.8546C11.6917 14.8546 14.7113 11.923 14.8509 8.26488C13.0109 7.89441 11.604 6.4 11.3498 4.53691C9.59212 4.22371 8.19958 2.88859 7.81474 1.1472Z" fill="#F3F3F3"/>
<path d="M5.89991 5.5064C6.41121 5.5064 6.8257 5.09196 6.8257 4.58072C6.8257 4.06947 6.41121 3.65503 5.89991 3.65503C5.38861 3.65503 4.97412 4.06947 4.97412 4.58072C4.97412 5.09196 5.38861 5.5064 5.89991 5.5064Z" fill="#F3F3F3"/>
<path d="M7.99415 8.90411C8.50545 8.90411 8.91994 8.48966 8.91994 7.97842C8.91994 7.46718 8.50545 7.05273 7.99415 7.05273C7.48285 7.05273 7.06836 7.46718 7.06836 7.97842C7.06836 8.48966 7.48285 8.90411 7.99415 8.90411Z" fill="#F3F3F3"/>
<path d="M8.10889 12.8765C8.62019 12.8765 9.03468 12.4621 9.03468 11.9508C9.03468 11.4396 8.62019 11.0251 8.10889 11.0251C7.5976 11.0251 7.18311 11.4396 7.18311 11.9508C7.18311 12.4621 7.5976 12.8765 8.10889 12.8765Z" fill="#F3F3F3"/>
<path d="M4.04932 9.47295C4.56062 9.47295 4.97511 9.05851 4.97511 8.54727C4.97511 8.03603 4.56062 7.62158 4.04932 7.62158C3.53803 7.62158 3.12354 8.03603 3.12354 8.54727C3.12354 9.05851 3.53803 9.47295 4.04932 9.47295Z" fill="#F3F3F3"/>
<path d="M11.6011 10.6204C12.1124 10.6204 12.5269 10.206 12.5269 9.69473C12.5269 9.18349 12.1124 8.76904 11.6011 8.76904C11.0898 8.76904 10.6753 9.18349 10.6753 9.69473C10.6753 10.206 11.0898 10.6204 11.6011 10.6204Z" fill="#F3F3F3"/>
</svg>
