<svg width="18" height="18" viewBox="0 0 18 18" fill="none" xmlns="http://www.w3.org/2000/svg">
<path d="M4.18973 13.81C3.17427 12.7945 3.17427 11.1437 4.18972 10.1282L6.56505 7.75291L5.43677 6.62463L3.06144 8.99996C1.42247 10.6389 1.42247 13.2993 3.06144 14.9383C4.70042 16.5773 7.36079 16.5773 8.99976 14.9383L11.3751 12.5629L10.2468 11.4347L7.87148 13.81C6.85603 14.8254 5.20518 14.8254 4.18973 13.81ZM7.21827 11.9691L11.9689 7.21846L10.7813 6.0308L6.0306 10.7815L7.21827 11.9691ZM8.99976 3.06164L6.62444 5.43697L7.75272 6.56525L10.128 4.18992C11.1435 3.17447 12.7943 3.17447 13.8098 4.18992C14.8253 5.20537 14.8253 6.85622 13.8098 7.87168L11.4345 10.247L12.5628 11.3753L14.9381 8.99996C16.5771 7.36098 16.5771 4.70061 14.9381 3.06164C13.2991 1.42266 10.6387 1.42266 8.99976 3.06164Z" fill="white"/>
</svg>
